<mxfile host="app.diagrams.net" modified="2023-09-09T10:49:33.752Z" agent="Mozilla/5.0 (Windows NT 10.0; Win64; x64) AppleWebKit/537.36 (KHTML, like Gecko) Chrome/115.0.0.0 Safari/537.36 OPR/101.0.0.0" etag="-kTajPsR_RtuFj6zVLtH" version="21.7.2" type="google">
  <diagram name="Страница — 1" id="GePVlgr-gJjcMLXqzLfk">
    <mxGraphModel grid="1" page="1" gridSize="10" guides="1" tooltips="1" connect="1" arrows="1" fold="1" pageScale="1" pageWidth="1654" pageHeight="2336" math="0" shadow="0">
      <root>
        <mxCell id="0" />
        <mxCell id="1" parent="0" />
        <mxCell id="QNIcIMOm-5N9Rosn84Q4-2" style="edgeStyle=orthogonalEdgeStyle;rounded=0;orthogonalLoop=1;jettySize=auto;html=1;exitX=0.5;exitY=1;exitDx=0;exitDy=0;metaEdit=0;fixDash=0;snapToPoint=0;enumerate=0;comic=0;backgroundOutline=0;curved=1;" edge="1" parent="1" source="QNIcIMOm-5N9Rosn84Q4-1" target="QNIcIMOm-5N9Rosn84Q4-4">
          <mxGeometry relative="1" as="geometry">
            <mxPoint x="1499.7142857142858" y="759" as="targetPoint" />
          </mxGeometry>
        </mxCell>
        <mxCell id="QNIcIMOm-5N9Rosn84Q4-1" value="" style="ellipse;whiteSpace=wrap;html=1;metaEdit=0;fixDash=0;snapToPoint=0;enumerate=0;comic=0;backgroundOutline=0;" vertex="1" parent="1">
          <mxGeometry x="1420" y="380" width="80" height="80" as="geometry" />
        </mxCell>
        <mxCell id="QNIcIMOm-5N9Rosn84Q4-5" style="edgeStyle=orthogonalEdgeStyle;rounded=0;orthogonalLoop=1;jettySize=auto;html=1;exitX=0;exitY=0.5;exitDx=0;exitDy=0;entryX=0.75;entryY=0;entryDx=0;entryDy=0;metaEdit=0;fixDash=0;snapToPoint=0;enumerate=0;comic=0;backgroundOutline=0;curved=1;" edge="1" parent="1" source="QNIcIMOm-5N9Rosn84Q4-7" target="QNIcIMOm-5N9Rosn84Q4-6">
          <mxGeometry relative="1" as="geometry">
            <mxPoint x="1450.3333333333335" y="939" as="targetPoint" />
          </mxGeometry>
        </mxCell>
        <mxCell id="QNIcIMOm-5N9Rosn84Q4-14" style="edgeStyle=orthogonalEdgeStyle;rounded=0;orthogonalLoop=1;jettySize=auto;html=1;exitX=1;exitY=0.75;exitDx=0;exitDy=0;entryX=0;entryY=0.5;entryDx=0;entryDy=0;fontFamily=Helvetica;fontSize=12;fontColor=default;metaEdit=0;fixDash=0;snapToPoint=0;enumerate=0;comic=0;backgroundOutline=0;curved=1;" edge="1" parent="1" source="QNIcIMOm-5N9Rosn84Q4-4" target="QNIcIMOm-5N9Rosn84Q4-13">
          <mxGeometry relative="1" as="geometry" />
        </mxCell>
        <mxCell id="QNIcIMOm-5N9Rosn84Q4-73" style="edgeStyle=orthogonalEdgeStyle;rounded=0;orthogonalLoop=1;jettySize=auto;html=1;exitX=0.75;exitY=0;exitDx=0;exitDy=0;entryX=0;entryY=0.5;entryDx=0;entryDy=0;fontFamily=Helvetica;fontSize=12;fontColor=default;metaEdit=0;fixDash=0;snapToPoint=0;enumerate=0;comic=0;backgroundOutline=0;curved=1;" edge="1" parent="1" source="QNIcIMOm-5N9Rosn84Q4-4" target="QNIcIMOm-5N9Rosn84Q4-72">
          <mxGeometry relative="1" as="geometry" />
        </mxCell>
        <mxCell id="QNIcIMOm-5N9Rosn84Q4-94" style="edgeStyle=orthogonalEdgeStyle;rounded=0;orthogonalLoop=1;jettySize=auto;html=1;exitX=0;exitY=0.5;exitDx=0;exitDy=0;entryX=1;entryY=0.25;entryDx=0;entryDy=0;fontFamily=Helvetica;fontSize=12;fontColor=default;curved=1;metaEdit=0;fixDash=0;snapToPoint=0;enumerate=0;comic=0;backgroundOutline=0;" edge="1" parent="1" source="QNIcIMOm-5N9Rosn84Q4-107" target="QNIcIMOm-5N9Rosn84Q4-83">
          <mxGeometry relative="1" as="geometry" />
        </mxCell>
        <mxCell id="QNIcIMOm-5N9Rosn84Q4-109" style="edgeStyle=orthogonalEdgeStyle;rounded=0;orthogonalLoop=1;jettySize=auto;html=1;exitX=0;exitY=0;exitDx=0;exitDy=0;entryX=1;entryY=0.5;entryDx=0;entryDy=0;fontFamily=Helvetica;fontSize=12;fontColor=default;curved=1;metaEdit=0;fixDash=0;snapToPoint=0;enumerate=0;comic=0;backgroundOutline=0;" edge="1" parent="1" source="QNIcIMOm-5N9Rosn84Q4-4" target="QNIcIMOm-5N9Rosn84Q4-107">
          <mxGeometry relative="1" as="geometry" />
        </mxCell>
        <mxCell id="QNIcIMOm-5N9Rosn84Q4-4" value="&lt;font style=&quot;font-size: 20px;&quot;&gt;Главная страница&amp;nbsp;Stellar Burgers (Конструктор) без авторизации&lt;/font&gt;" style="rounded=1;whiteSpace=wrap;html=1;metaEdit=0;fixDash=0;snapToPoint=0;enumerate=0;comic=0;backgroundOutline=0;fillColor=#dae8fc;strokeColor=#6c8ebf;" vertex="1" parent="1">
          <mxGeometry x="1290" y="550" width="340" height="140" as="geometry" />
        </mxCell>
        <mxCell id="QNIcIMOm-5N9Rosn84Q4-9" style="edgeStyle=orthogonalEdgeStyle;rounded=0;orthogonalLoop=1;jettySize=auto;html=1;entryX=0.25;entryY=1;entryDx=0;entryDy=0;fontFamily=Helvetica;fontSize=12;fontColor=default;metaEdit=0;fixDash=0;snapToPoint=0;enumerate=0;comic=0;backgroundOutline=0;curved=1;" edge="1" parent="1" source="QNIcIMOm-5N9Rosn84Q4-10" target="QNIcIMOm-5N9Rosn84Q4-4">
          <mxGeometry relative="1" as="geometry" />
        </mxCell>
        <mxCell id="QNIcIMOm-5N9Rosn84Q4-48" style="edgeStyle=orthogonalEdgeStyle;rounded=0;orthogonalLoop=1;jettySize=auto;html=1;exitX=0.75;exitY=1;exitDx=0;exitDy=0;entryX=0;entryY=0.5;entryDx=0;entryDy=0;fontFamily=Helvetica;fontSize=12;fontColor=default;metaEdit=0;fixDash=0;snapToPoint=0;enumerate=0;comic=0;backgroundOutline=0;curved=1;" edge="1" parent="1" source="QNIcIMOm-5N9Rosn84Q4-6" target="QNIcIMOm-5N9Rosn84Q4-47">
          <mxGeometry relative="1" as="geometry" />
        </mxCell>
        <mxCell id="QNIcIMOm-5N9Rosn84Q4-130" style="edgeStyle=orthogonalEdgeStyle;rounded=0;orthogonalLoop=1;jettySize=auto;html=1;exitX=0.25;exitY=1;exitDx=0;exitDy=0;entryX=0.75;entryY=0;entryDx=0;entryDy=0;fontFamily=Helvetica;fontSize=12;fontColor=default;curved=1;" edge="1" parent="1" source="QNIcIMOm-5N9Rosn84Q4-6" target="QNIcIMOm-5N9Rosn84Q4-129">
          <mxGeometry relative="1" as="geometry" />
        </mxCell>
        <mxCell id="QNIcIMOm-5N9Rosn84Q4-6" value="&lt;font style=&quot;font-size: 20px;&quot;&gt;Блок &quot;Лента заказов&quot;&lt;/font&gt;" style="rounded=1;whiteSpace=wrap;html=1;metaEdit=0;fixDash=0;snapToPoint=0;enumerate=0;comic=0;backgroundOutline=0;" vertex="1" parent="1">
          <mxGeometry x="880" y="979" width="240" height="81" as="geometry" />
        </mxCell>
        <mxCell id="QNIcIMOm-5N9Rosn84Q4-8" value="" style="edgeStyle=orthogonalEdgeStyle;rounded=0;orthogonalLoop=1;jettySize=auto;html=1;exitX=0.5;exitY=1;exitDx=0;exitDy=0;entryX=1;entryY=0.5;entryDx=0;entryDy=0;metaEdit=0;fixDash=0;snapToPoint=0;enumerate=0;comic=0;backgroundOutline=0;curved=1;" edge="1" parent="1" source="QNIcIMOm-5N9Rosn84Q4-4" target="QNIcIMOm-5N9Rosn84Q4-7">
          <mxGeometry relative="1" as="geometry">
            <mxPoint x="1390" y="959" as="targetPoint" />
            <mxPoint x="1450" y="839" as="sourcePoint" />
          </mxGeometry>
        </mxCell>
        <mxCell id="QNIcIMOm-5N9Rosn84Q4-7" value="Кнопка &quot;Лента заказов&quot;&amp;nbsp;(для не авторизированных пользователей)" style="text;html=1;strokeColor=none;fillColor=none;align=center;verticalAlign=middle;whiteSpace=wrap;rounded=0;fontSize=20;fontFamily=Helvetica;fontColor=default;metaEdit=0;fixDash=0;snapToPoint=0;enumerate=0;comic=0;backgroundOutline=0;" vertex="1" parent="1">
          <mxGeometry x="1140" y="864.5" width="340" height="51" as="geometry" />
        </mxCell>
        <mxCell id="QNIcIMOm-5N9Rosn84Q4-11" value="" style="edgeStyle=orthogonalEdgeStyle;rounded=0;orthogonalLoop=1;jettySize=auto;html=1;entryX=0;entryY=0.5;entryDx=0;entryDy=0;fontFamily=Helvetica;fontSize=12;fontColor=default;exitX=0.5;exitY=0;exitDx=0;exitDy=0;metaEdit=0;fixDash=0;snapToPoint=0;enumerate=0;comic=0;backgroundOutline=0;curved=1;" edge="1" parent="1" source="QNIcIMOm-5N9Rosn84Q4-6" target="QNIcIMOm-5N9Rosn84Q4-10">
          <mxGeometry relative="1" as="geometry">
            <mxPoint x="1110" y="794" as="sourcePoint" />
            <mxPoint x="1390" y="794" as="targetPoint" />
          </mxGeometry>
        </mxCell>
        <mxCell id="QNIcIMOm-5N9Rosn84Q4-10" value="Кнопка &quot;Конструктор&quot; (для не авторизированных пользователей)" style="text;html=1;strokeColor=none;fillColor=none;align=center;verticalAlign=middle;whiteSpace=wrap;rounded=0;fontSize=20;fontFamily=Helvetica;fontColor=default;metaEdit=0;fixDash=0;snapToPoint=0;enumerate=0;comic=0;backgroundOutline=0;" vertex="1" parent="1">
          <mxGeometry x="1040" y="779" width="340" height="51" as="geometry" />
        </mxCell>
        <mxCell id="QNIcIMOm-5N9Rosn84Q4-17" style="edgeStyle=orthogonalEdgeStyle;rounded=0;orthogonalLoop=1;jettySize=auto;html=1;entryX=1;entryY=0.5;entryDx=0;entryDy=0;fontFamily=Helvetica;fontSize=12;fontColor=default;exitX=0;exitY=0.25;exitDx=0;exitDy=0;metaEdit=0;fixDash=0;snapToPoint=0;enumerate=0;comic=0;backgroundOutline=0;curved=1;" edge="1" parent="1" source="QNIcIMOm-5N9Rosn84Q4-12" target="QNIcIMOm-5N9Rosn84Q4-16">
          <mxGeometry relative="1" as="geometry" />
        </mxCell>
        <mxCell id="QNIcIMOm-5N9Rosn84Q4-20" style="edgeStyle=orthogonalEdgeStyle;rounded=0;orthogonalLoop=1;jettySize=auto;html=1;exitX=0.25;exitY=1;exitDx=0;exitDy=0;entryX=1;entryY=0.5;entryDx=0;entryDy=0;fontFamily=Helvetica;fontSize=12;fontColor=default;metaEdit=0;fixDash=0;snapToPoint=0;enumerate=0;comic=0;backgroundOutline=0;curved=1;" edge="1" parent="1" source="QNIcIMOm-5N9Rosn84Q4-12" target="QNIcIMOm-5N9Rosn84Q4-19">
          <mxGeometry relative="1" as="geometry" />
        </mxCell>
        <mxCell id="QNIcIMOm-5N9Rosn84Q4-22" style="edgeStyle=orthogonalEdgeStyle;rounded=0;orthogonalLoop=1;jettySize=auto;html=1;exitX=1;exitY=0.25;exitDx=0;exitDy=0;entryX=0;entryY=0.5;entryDx=0;entryDy=0;fontFamily=Helvetica;fontSize=12;fontColor=default;metaEdit=0;fixDash=0;snapToPoint=0;enumerate=0;comic=0;backgroundOutline=0;curved=1;" edge="1" parent="1" source="QNIcIMOm-5N9Rosn84Q4-12" target="QNIcIMOm-5N9Rosn84Q4-21">
          <mxGeometry relative="1" as="geometry" />
        </mxCell>
        <mxCell id="QNIcIMOm-5N9Rosn84Q4-39" style="edgeStyle=orthogonalEdgeStyle;rounded=0;orthogonalLoop=1;jettySize=auto;html=1;exitX=0.5;exitY=1;exitDx=0;exitDy=0;entryX=0.75;entryY=0;entryDx=0;entryDy=0;fontFamily=Helvetica;fontSize=12;fontColor=default;metaEdit=0;fixDash=0;snapToPoint=0;enumerate=0;comic=0;backgroundOutline=0;curved=1;" edge="1" parent="1" source="QNIcIMOm-5N9Rosn84Q4-40" target="QNIcIMOm-5N9Rosn84Q4-38">
          <mxGeometry relative="1" as="geometry" />
        </mxCell>
        <mxCell id="QNIcIMOm-5N9Rosn84Q4-12" value="&lt;font style=&quot;font-size: 20px;&quot;&gt;Форма &quot;Вход&quot;&lt;/font&gt;" style="rounded=1;whiteSpace=wrap;html=1;metaEdit=0;fixDash=0;snapToPoint=0;enumerate=0;comic=0;backgroundOutline=0;" vertex="1" parent="1">
          <mxGeometry x="2095" y="524" width="240" height="81" as="geometry" />
        </mxCell>
        <mxCell id="QNIcIMOm-5N9Rosn84Q4-15" style="edgeStyle=orthogonalEdgeStyle;rounded=0;orthogonalLoop=1;jettySize=auto;html=1;exitX=1;exitY=0.5;exitDx=0;exitDy=0;entryX=0;entryY=0.75;entryDx=0;entryDy=0;fontFamily=Helvetica;fontSize=12;fontColor=default;metaEdit=0;fixDash=0;snapToPoint=0;enumerate=0;comic=0;backgroundOutline=0;curved=1;" edge="1" parent="1" source="QNIcIMOm-5N9Rosn84Q4-13" target="QNIcIMOm-5N9Rosn84Q4-12">
          <mxGeometry relative="1" as="geometry" />
        </mxCell>
        <mxCell id="QNIcIMOm-5N9Rosn84Q4-13" value="Кнопка &quot;Личный кабинет&quot;" style="text;html=1;strokeColor=none;fillColor=none;align=center;verticalAlign=middle;whiteSpace=wrap;rounded=0;fontSize=20;fontFamily=Helvetica;fontColor=default;metaEdit=0;fixDash=0;snapToPoint=0;enumerate=0;comic=0;backgroundOutline=0;" vertex="1" parent="1">
          <mxGeometry x="1700" y="635" width="240" height="40" as="geometry" />
        </mxCell>
        <mxCell id="QNIcIMOm-5N9Rosn84Q4-18" style="edgeStyle=orthogonalEdgeStyle;rounded=0;orthogonalLoop=1;jettySize=auto;html=1;entryX=1;entryY=0.25;entryDx=0;entryDy=0;fontFamily=Helvetica;fontSize=12;fontColor=default;metaEdit=0;fixDash=0;snapToPoint=0;enumerate=0;comic=0;backgroundOutline=0;curved=1;" edge="1" parent="1" source="QNIcIMOm-5N9Rosn84Q4-16" target="QNIcIMOm-5N9Rosn84Q4-4">
          <mxGeometry relative="1" as="geometry" />
        </mxCell>
        <mxCell id="QNIcIMOm-5N9Rosn84Q4-16" value="Кнопка &quot;Конструктор&quot;" style="text;html=1;strokeColor=none;fillColor=none;align=center;verticalAlign=middle;whiteSpace=wrap;rounded=0;fontSize=20;fontFamily=Helvetica;fontColor=default;metaEdit=0;fixDash=0;snapToPoint=0;enumerate=0;comic=0;backgroundOutline=0;" vertex="1" parent="1">
          <mxGeometry x="1720" y="565" width="240" height="40" as="geometry" />
        </mxCell>
        <mxCell id="QNIcIMOm-5N9Rosn84Q4-24" style="edgeStyle=orthogonalEdgeStyle;rounded=0;orthogonalLoop=1;jettySize=auto;html=1;exitX=0.5;exitY=1;exitDx=0;exitDy=0;entryX=1;entryY=0.25;entryDx=0;entryDy=0;fontFamily=Helvetica;fontSize=12;fontColor=default;metaEdit=0;fixDash=0;snapToPoint=0;enumerate=0;comic=0;backgroundOutline=0;curved=1;" edge="1" parent="1" source="QNIcIMOm-5N9Rosn84Q4-19" target="QNIcIMOm-5N9Rosn84Q4-23">
          <mxGeometry relative="1" as="geometry" />
        </mxCell>
        <mxCell id="QNIcIMOm-5N9Rosn84Q4-19" value="Кнопка &quot;Зарегистрироваться&quot;" style="text;html=1;strokeColor=none;fillColor=none;align=center;verticalAlign=middle;whiteSpace=wrap;rounded=0;fontSize=20;fontFamily=Helvetica;fontColor=default;metaEdit=0;fixDash=0;snapToPoint=0;enumerate=0;comic=0;backgroundOutline=0;" vertex="1" parent="1">
          <mxGeometry x="1900" y="680" width="240" height="60" as="geometry" />
        </mxCell>
        <mxCell id="QNIcIMOm-5N9Rosn84Q4-32" style="edgeStyle=orthogonalEdgeStyle;rounded=0;orthogonalLoop=1;jettySize=auto;html=1;exitX=1;exitY=0.5;exitDx=0;exitDy=0;entryX=0.5;entryY=0;entryDx=0;entryDy=0;fontFamily=Helvetica;fontSize=12;fontColor=default;metaEdit=0;fixDash=0;snapToPoint=0;enumerate=0;comic=0;backgroundOutline=0;curved=1;" edge="1" parent="1" source="QNIcIMOm-5N9Rosn84Q4-21" target="QNIcIMOm-5N9Rosn84Q4-31">
          <mxGeometry relative="1" as="geometry" />
        </mxCell>
        <mxCell id="QNIcIMOm-5N9Rosn84Q4-21" value="Кнопка &quot;Восстановить пароль&quot;" style="text;html=1;strokeColor=none;fillColor=none;align=center;verticalAlign=middle;whiteSpace=wrap;rounded=0;fontSize=20;fontFamily=Helvetica;fontColor=default;metaEdit=0;fixDash=0;snapToPoint=0;enumerate=0;comic=0;backgroundOutline=0;" vertex="1" parent="1">
          <mxGeometry x="2390" y="484" width="240" height="40" as="geometry" />
        </mxCell>
        <mxCell id="QNIcIMOm-5N9Rosn84Q4-26" style="edgeStyle=orthogonalEdgeStyle;rounded=0;orthogonalLoop=1;jettySize=auto;html=1;exitX=1;exitY=0.5;exitDx=0;exitDy=0;entryX=0;entryY=0.5;entryDx=0;entryDy=0;fontFamily=Helvetica;fontSize=12;fontColor=default;metaEdit=0;fixDash=0;snapToPoint=0;enumerate=0;comic=0;backgroundOutline=0;curved=1;" edge="1" parent="1" source="QNIcIMOm-5N9Rosn84Q4-23" target="QNIcIMOm-5N9Rosn84Q4-25">
          <mxGeometry relative="1" as="geometry" />
        </mxCell>
        <mxCell id="QNIcIMOm-5N9Rosn84Q4-28" style="edgeStyle=orthogonalEdgeStyle;rounded=0;orthogonalLoop=1;jettySize=auto;html=1;exitX=0.5;exitY=0;exitDx=0;exitDy=0;entryX=0.75;entryY=1;entryDx=0;entryDy=0;fontFamily=Helvetica;fontSize=12;fontColor=default;metaEdit=0;fixDash=0;snapToPoint=0;enumerate=0;comic=0;backgroundOutline=0;curved=1;" edge="1" parent="1" source="QNIcIMOm-5N9Rosn84Q4-29" target="QNIcIMOm-5N9Rosn84Q4-4">
          <mxGeometry relative="1" as="geometry" />
        </mxCell>
        <mxCell id="QNIcIMOm-5N9Rosn84Q4-23" value="&lt;font style=&quot;font-size: 20px;&quot;&gt;Форма &quot;Регистрация&quot;&lt;/font&gt;" style="rounded=1;whiteSpace=wrap;html=1;metaEdit=0;fixDash=0;snapToPoint=0;enumerate=0;comic=0;backgroundOutline=0;" vertex="1" parent="1">
          <mxGeometry x="1710" y="850" width="240" height="80" as="geometry" />
        </mxCell>
        <mxCell id="QNIcIMOm-5N9Rosn84Q4-27" style="edgeStyle=orthogonalEdgeStyle;rounded=0;orthogonalLoop=1;jettySize=auto;html=1;exitX=0.5;exitY=0;exitDx=0;exitDy=0;entryX=0.5;entryY=1;entryDx=0;entryDy=0;fontFamily=Helvetica;fontSize=12;fontColor=default;metaEdit=0;fixDash=0;snapToPoint=0;enumerate=0;comic=0;backgroundOutline=0;curved=1;" edge="1" parent="1" source="QNIcIMOm-5N9Rosn84Q4-25" target="QNIcIMOm-5N9Rosn84Q4-12">
          <mxGeometry relative="1" as="geometry" />
        </mxCell>
        <mxCell id="QNIcIMOm-5N9Rosn84Q4-25" value="Кнопка &quot;Войти&quot;" style="text;html=1;strokeColor=none;fillColor=none;align=center;verticalAlign=middle;whiteSpace=wrap;rounded=0;fontSize=20;fontFamily=Helvetica;fontColor=default;metaEdit=0;fixDash=0;snapToPoint=0;enumerate=0;comic=0;backgroundOutline=0;" vertex="1" parent="1">
          <mxGeometry x="2060" y="870" width="180" height="40" as="geometry" />
        </mxCell>
        <mxCell id="QNIcIMOm-5N9Rosn84Q4-30" value="" style="edgeStyle=orthogonalEdgeStyle;rounded=0;orthogonalLoop=1;jettySize=auto;html=1;exitX=0;exitY=0.5;exitDx=0;exitDy=0;entryX=0.5;entryY=1;entryDx=0;entryDy=0;fontFamily=Helvetica;fontSize=12;fontColor=default;metaEdit=0;fixDash=0;snapToPoint=0;enumerate=0;comic=0;backgroundOutline=0;curved=1;" edge="1" parent="1" source="QNIcIMOm-5N9Rosn84Q4-23" target="QNIcIMOm-5N9Rosn84Q4-29">
          <mxGeometry relative="1" as="geometry">
            <mxPoint x="1950" y="1115" as="sourcePoint" />
            <mxPoint x="1510" y="839" as="targetPoint" />
          </mxGeometry>
        </mxCell>
        <mxCell id="QNIcIMOm-5N9Rosn84Q4-29" value="Кнопка &quot;Зарегистрироваться&quot;" style="text;html=1;strokeColor=none;fillColor=none;align=center;verticalAlign=middle;whiteSpace=wrap;rounded=0;fontSize=20;fontFamily=Helvetica;fontColor=default;metaEdit=0;fixDash=0;snapToPoint=0;enumerate=0;comic=0;backgroundOutline=0;" vertex="1" parent="1">
          <mxGeometry x="1560" y="750" width="240" height="40" as="geometry" />
        </mxCell>
        <mxCell id="QNIcIMOm-5N9Rosn84Q4-34" style="edgeStyle=orthogonalEdgeStyle;rounded=0;orthogonalLoop=1;jettySize=auto;html=1;exitX=0.5;exitY=1;exitDx=0;exitDy=0;entryX=0.5;entryY=0;entryDx=0;entryDy=0;fontFamily=Helvetica;fontSize=12;fontColor=default;metaEdit=0;fixDash=0;snapToPoint=0;enumerate=0;comic=0;backgroundOutline=0;curved=1;" edge="1" parent="1" source="QNIcIMOm-5N9Rosn84Q4-31" target="QNIcIMOm-5N9Rosn84Q4-33">
          <mxGeometry relative="1" as="geometry" />
        </mxCell>
        <mxCell id="QNIcIMOm-5N9Rosn84Q4-31" value="&lt;font style=&quot;font-size: 20px;&quot;&gt;Форма &quot;Восстановление пароля&quot;&lt;/font&gt;" style="rounded=1;whiteSpace=wrap;html=1;metaEdit=0;fixDash=0;snapToPoint=0;enumerate=0;comic=0;backgroundOutline=0;" vertex="1" parent="1">
          <mxGeometry x="2700" y="571" width="240" height="80" as="geometry" />
        </mxCell>
        <mxCell id="QNIcIMOm-5N9Rosn84Q4-36" style="edgeStyle=orthogonalEdgeStyle;rounded=0;orthogonalLoop=1;jettySize=auto;html=1;exitX=0.5;exitY=1;exitDx=0;exitDy=0;entryX=0.5;entryY=0;entryDx=0;entryDy=0;fontFamily=Helvetica;fontSize=12;fontColor=default;metaEdit=0;fixDash=0;snapToPoint=0;enumerate=0;comic=0;backgroundOutline=0;curved=1;" edge="1" parent="1" source="QNIcIMOm-5N9Rosn84Q4-33" target="QNIcIMOm-5N9Rosn84Q4-35">
          <mxGeometry relative="1" as="geometry" />
        </mxCell>
        <mxCell id="QNIcIMOm-5N9Rosn84Q4-33" value="Кнопка &quot;Восстановить&quot;" style="text;html=1;strokeColor=none;fillColor=none;align=center;verticalAlign=middle;whiteSpace=wrap;rounded=0;fontSize=20;fontFamily=Helvetica;fontColor=default;metaEdit=0;fixDash=0;snapToPoint=0;enumerate=0;comic=0;backgroundOutline=0;" vertex="1" parent="1">
          <mxGeometry x="2700" y="700" width="240" height="40" as="geometry" />
        </mxCell>
        <mxCell id="QNIcIMOm-5N9Rosn84Q4-37" style="edgeStyle=orthogonalEdgeStyle;rounded=0;orthogonalLoop=1;jettySize=auto;html=1;exitX=0.5;exitY=0;exitDx=0;exitDy=0;entryX=1;entryY=0.5;entryDx=0;entryDy=0;fontFamily=Helvetica;fontSize=12;fontColor=default;metaEdit=0;fixDash=0;snapToPoint=0;enumerate=0;comic=0;backgroundOutline=0;curved=1;" edge="1" parent="1" source="QNIcIMOm-5N9Rosn84Q4-125" target="QNIcIMOm-5N9Rosn84Q4-12">
          <mxGeometry relative="1" as="geometry" />
        </mxCell>
        <mxCell id="QNIcIMOm-5N9Rosn84Q4-35" value="&lt;font style=&quot;font-size: 20px;&quot;&gt;Форма &quot;Сброс пароля&quot;&lt;/font&gt;" style="rounded=1;whiteSpace=wrap;html=1;metaEdit=0;fixDash=0;snapToPoint=0;enumerate=0;comic=0;backgroundOutline=0;" vertex="1" parent="1">
          <mxGeometry x="2700" y="820" width="240" height="80" as="geometry" />
        </mxCell>
        <mxCell id="QNIcIMOm-5N9Rosn84Q4-51" style="edgeStyle=orthogonalEdgeStyle;rounded=0;orthogonalLoop=1;jettySize=auto;html=1;exitX=1;exitY=0.25;exitDx=0;exitDy=0;entryX=0;entryY=0.5;entryDx=0;entryDy=0;fontFamily=Helvetica;fontSize=12;fontColor=default;metaEdit=0;fixDash=0;snapToPoint=0;enumerate=0;comic=0;backgroundOutline=0;curved=1;" edge="1" parent="1" source="QNIcIMOm-5N9Rosn84Q4-38" target="QNIcIMOm-5N9Rosn84Q4-50">
          <mxGeometry relative="1" as="geometry" />
        </mxCell>
        <mxCell id="QNIcIMOm-5N9Rosn84Q4-64" style="edgeStyle=orthogonalEdgeStyle;rounded=0;orthogonalLoop=1;jettySize=auto;html=1;exitX=1;exitY=0.5;exitDx=0;exitDy=0;fontFamily=Helvetica;fontSize=12;fontColor=default;entryX=0.5;entryY=0;entryDx=0;entryDy=0;metaEdit=0;fixDash=0;snapToPoint=0;enumerate=0;comic=0;backgroundOutline=0;curved=1;" edge="1" parent="1" source="QNIcIMOm-5N9Rosn84Q4-38" target="QNIcIMOm-5N9Rosn84Q4-63">
          <mxGeometry relative="1" as="geometry" />
        </mxCell>
        <mxCell id="QNIcIMOm-5N9Rosn84Q4-106" style="edgeStyle=orthogonalEdgeStyle;rounded=0;orthogonalLoop=1;jettySize=auto;html=1;exitX=0;exitY=0.5;exitDx=0;exitDy=0;entryX=1;entryY=0.25;entryDx=0;entryDy=0;fontFamily=Helvetica;fontSize=12;fontColor=default;metaEdit=0;fixDash=0;snapToPoint=0;enumerate=0;comic=0;backgroundOutline=0;curved=1;" edge="1" parent="1" source="QNIcIMOm-5N9Rosn84Q4-110" target="QNIcIMOm-5N9Rosn84Q4-102">
          <mxGeometry relative="1" as="geometry">
            <mxPoint x="1210" y="1290" as="sourcePoint" />
          </mxGeometry>
        </mxCell>
        <mxCell id="QNIcIMOm-5N9Rosn84Q4-38" value="&lt;font style=&quot;font-size: 20px;&quot;&gt;Главная страница&amp;nbsp;Stellar Burgers (Конструктор) с авторизацией&lt;/font&gt;" style="rounded=1;whiteSpace=wrap;html=1;metaEdit=0;fixDash=0;snapToPoint=0;enumerate=0;comic=0;backgroundOutline=0;fillColor=#dae8fc;strokeColor=#6c8ebf;" vertex="1" parent="1">
          <mxGeometry x="1550" y="1180" width="340" height="140" as="geometry" />
        </mxCell>
        <mxCell id="QNIcIMOm-5N9Rosn84Q4-41" value="" style="edgeStyle=orthogonalEdgeStyle;rounded=0;orthogonalLoop=1;jettySize=auto;html=1;exitX=0.75;exitY=1;exitDx=0;exitDy=0;entryX=0.5;entryY=0;entryDx=0;entryDy=0;fontFamily=Helvetica;fontSize=12;fontColor=default;metaEdit=0;fixDash=0;snapToPoint=0;enumerate=0;comic=0;backgroundOutline=0;curved=1;" edge="1" parent="1" source="QNIcIMOm-5N9Rosn84Q4-12" target="QNIcIMOm-5N9Rosn84Q4-40">
          <mxGeometry relative="1" as="geometry">
            <mxPoint x="2170" y="830" as="sourcePoint" />
            <mxPoint x="1690" y="1221" as="targetPoint" />
          </mxGeometry>
        </mxCell>
        <mxCell id="QNIcIMOm-5N9Rosn84Q4-40" value="Кнопка &quot;Войти&quot;" style="text;html=1;strokeColor=none;fillColor=none;align=center;verticalAlign=middle;whiteSpace=wrap;rounded=0;fontSize=20;fontFamily=Helvetica;fontColor=default;metaEdit=0;fixDash=0;snapToPoint=0;enumerate=0;comic=0;backgroundOutline=0;" vertex="1" parent="1">
          <mxGeometry x="2190" y="761" width="180" height="40" as="geometry" />
        </mxCell>
        <mxCell id="QNIcIMOm-5N9Rosn84Q4-42" style="edgeStyle=orthogonalEdgeStyle;rounded=0;orthogonalLoop=1;jettySize=auto;html=1;exitX=0;exitY=0.5;exitDx=0;exitDy=0;entryX=0.5;entryY=1;entryDx=0;entryDy=0;metaEdit=0;fixDash=0;snapToPoint=0;enumerate=0;comic=0;backgroundOutline=0;curved=1;" edge="1" parent="1" source="QNIcIMOm-5N9Rosn84Q4-45" target="QNIcIMOm-5N9Rosn84Q4-6">
          <mxGeometry relative="1" as="geometry">
            <mxPoint x="1040" y="1170" as="targetPoint" />
          </mxGeometry>
        </mxCell>
        <mxCell id="QNIcIMOm-5N9Rosn84Q4-43" style="edgeStyle=orthogonalEdgeStyle;rounded=0;orthogonalLoop=1;jettySize=auto;html=1;entryX=0.5;entryY=0;entryDx=0;entryDy=0;fontFamily=Helvetica;fontSize=12;fontColor=default;metaEdit=0;fixDash=0;snapToPoint=0;enumerate=0;comic=0;backgroundOutline=0;curved=1;" edge="1" parent="1" source="QNIcIMOm-5N9Rosn84Q4-47" target="QNIcIMOm-5N9Rosn84Q4-38">
          <mxGeometry relative="1" as="geometry">
            <mxPoint x="1430" y="1129" as="targetPoint" />
          </mxGeometry>
        </mxCell>
        <mxCell id="QNIcIMOm-5N9Rosn84Q4-44" value="" style="edgeStyle=orthogonalEdgeStyle;rounded=0;orthogonalLoop=1;jettySize=auto;html=1;exitX=0.25;exitY=0;exitDx=0;exitDy=0;entryX=1;entryY=0.5;entryDx=0;entryDy=0;metaEdit=0;fixDash=0;snapToPoint=0;enumerate=0;comic=0;backgroundOutline=0;curved=1;" edge="1" parent="1" source="QNIcIMOm-5N9Rosn84Q4-38" target="QNIcIMOm-5N9Rosn84Q4-45">
          <mxGeometry relative="1" as="geometry">
            <mxPoint x="1430" y="1319" as="targetPoint" />
            <mxPoint x="1430" y="1170" as="sourcePoint" />
          </mxGeometry>
        </mxCell>
        <mxCell id="QNIcIMOm-5N9Rosn84Q4-45" value="Кнопка &quot;Лента заказов&quot;&amp;nbsp;(для авторизированных пользователей)" style="text;html=1;strokeColor=none;fillColor=none;align=center;verticalAlign=middle;whiteSpace=wrap;rounded=0;fontSize=20;fontFamily=Helvetica;fontColor=default;metaEdit=0;fixDash=0;snapToPoint=0;enumerate=0;comic=0;backgroundOutline=0;" vertex="1" parent="1">
          <mxGeometry x="1190" y="1129" width="360" height="51" as="geometry" />
        </mxCell>
        <mxCell id="QNIcIMOm-5N9Rosn84Q4-47" value="Кнопка &quot;Конструктор&quot;&amp;nbsp;(для авторизированных пользователей)" style="text;html=1;strokeColor=none;fillColor=none;align=center;verticalAlign=middle;whiteSpace=wrap;rounded=0;fontSize=20;fontFamily=Helvetica;fontColor=default;metaEdit=0;fixDash=0;snapToPoint=0;enumerate=0;comic=0;backgroundOutline=0;" vertex="1" parent="1">
          <mxGeometry x="1120" y="1067" width="340" height="52" as="geometry" />
        </mxCell>
        <mxCell id="QNIcIMOm-5N9Rosn84Q4-55" style="edgeStyle=orthogonalEdgeStyle;rounded=0;orthogonalLoop=1;jettySize=auto;html=1;exitX=1;exitY=0.75;exitDx=0;exitDy=0;entryX=0.5;entryY=0;entryDx=0;entryDy=0;fontFamily=Helvetica;fontSize=12;fontColor=default;metaEdit=0;fixDash=0;snapToPoint=0;enumerate=0;comic=0;backgroundOutline=0;curved=1;" edge="1" parent="1" source="QNIcIMOm-5N9Rosn84Q4-49" target="QNIcIMOm-5N9Rosn84Q4-53">
          <mxGeometry relative="1" as="geometry" />
        </mxCell>
        <mxCell id="QNIcIMOm-5N9Rosn84Q4-61" style="edgeStyle=orthogonalEdgeStyle;rounded=0;orthogonalLoop=1;jettySize=auto;html=1;exitX=1;exitY=0.5;exitDx=0;exitDy=0;entryX=0.5;entryY=1;entryDx=0;entryDy=0;fontFamily=Helvetica;fontSize=12;fontColor=default;metaEdit=0;fixDash=0;snapToPoint=0;enumerate=0;comic=0;backgroundOutline=0;curved=1;" edge="1" parent="1" source="QNIcIMOm-5N9Rosn84Q4-49" target="QNIcIMOm-5N9Rosn84Q4-60">
          <mxGeometry relative="1" as="geometry" />
        </mxCell>
        <mxCell id="QNIcIMOm-5N9Rosn84Q4-49" value="&lt;font style=&quot;font-size: 20px;&quot;&gt;Форма &quot;Редактирование профиля&quot;&lt;/font&gt;" style="rounded=1;whiteSpace=wrap;html=1;metaEdit=0;fixDash=0;snapToPoint=0;enumerate=0;comic=0;backgroundOutline=0;" vertex="1" parent="1">
          <mxGeometry x="2335" y="1170" width="240" height="80" as="geometry" />
        </mxCell>
        <mxCell id="QNIcIMOm-5N9Rosn84Q4-52" style="edgeStyle=orthogonalEdgeStyle;rounded=0;orthogonalLoop=1;jettySize=auto;html=1;exitX=1;exitY=0.5;exitDx=0;exitDy=0;entryX=0;entryY=0.25;entryDx=0;entryDy=0;fontFamily=Helvetica;fontSize=12;fontColor=default;metaEdit=0;fixDash=0;snapToPoint=0;enumerate=0;comic=0;backgroundOutline=0;curved=1;" edge="1" parent="1" source="QNIcIMOm-5N9Rosn84Q4-50" target="QNIcIMOm-5N9Rosn84Q4-49">
          <mxGeometry relative="1" as="geometry" />
        </mxCell>
        <mxCell id="QNIcIMOm-5N9Rosn84Q4-50" value="Кнопка &quot;Личный кабинет&quot;" style="text;html=1;strokeColor=none;fillColor=none;align=center;verticalAlign=middle;whiteSpace=wrap;rounded=0;fontSize=20;fontFamily=Helvetica;fontColor=default;metaEdit=0;fixDash=0;snapToPoint=0;enumerate=0;comic=0;backgroundOutline=0;" vertex="1" parent="1">
          <mxGeometry x="1950" y="1160" width="270" height="40" as="geometry" />
        </mxCell>
        <mxCell id="QNIcIMOm-5N9Rosn84Q4-56" style="edgeStyle=orthogonalEdgeStyle;rounded=0;orthogonalLoop=1;jettySize=auto;html=1;exitX=0.5;exitY=1;exitDx=0;exitDy=0;entryX=0.75;entryY=0;entryDx=0;entryDy=0;fontFamily=Helvetica;fontSize=12;fontColor=default;metaEdit=0;fixDash=0;snapToPoint=0;enumerate=0;comic=0;backgroundOutline=0;curved=1;" edge="1" parent="1" source="QNIcIMOm-5N9Rosn84Q4-53" target="QNIcIMOm-5N9Rosn84Q4-54">
          <mxGeometry relative="1" as="geometry" />
        </mxCell>
        <mxCell id="QNIcIMOm-5N9Rosn84Q4-53" value="Кнопка &quot;История заказов&quot;" style="text;html=1;strokeColor=none;fillColor=none;align=center;verticalAlign=middle;whiteSpace=wrap;rounded=0;fontSize=20;fontFamily=Helvetica;fontColor=default;metaEdit=0;fixDash=0;snapToPoint=0;enumerate=0;comic=0;backgroundOutline=0;" vertex="1" parent="1">
          <mxGeometry x="2550" y="1270" width="270" height="40" as="geometry" />
        </mxCell>
        <mxCell id="QNIcIMOm-5N9Rosn84Q4-58" style="edgeStyle=orthogonalEdgeStyle;rounded=0;orthogonalLoop=1;jettySize=auto;html=1;exitX=0.25;exitY=0;exitDx=0;exitDy=0;entryX=0.5;entryY=1;entryDx=0;entryDy=0;fontFamily=Helvetica;fontSize=12;fontColor=default;metaEdit=0;fixDash=0;snapToPoint=0;enumerate=0;comic=0;backgroundOutline=0;curved=1;" edge="1" parent="1" source="QNIcIMOm-5N9Rosn84Q4-54" target="QNIcIMOm-5N9Rosn84Q4-57">
          <mxGeometry relative="1" as="geometry" />
        </mxCell>
        <mxCell id="QNIcIMOm-5N9Rosn84Q4-54" value="&lt;font style=&quot;font-size: 20px;&quot;&gt;Вкладка &quot;История заказов&quot;&lt;/font&gt;" style="rounded=1;whiteSpace=wrap;html=1;metaEdit=0;fixDash=0;snapToPoint=0;enumerate=0;comic=0;backgroundOutline=0;" vertex="1" parent="1">
          <mxGeometry x="2475" y="1390" width="280" height="80" as="geometry" />
        </mxCell>
        <mxCell id="QNIcIMOm-5N9Rosn84Q4-59" style="edgeStyle=orthogonalEdgeStyle;rounded=0;orthogonalLoop=1;jettySize=auto;html=1;exitX=0.5;exitY=0;exitDx=0;exitDy=0;entryX=0.5;entryY=1;entryDx=0;entryDy=0;fontFamily=Helvetica;fontSize=12;fontColor=default;metaEdit=0;fixDash=0;snapToPoint=0;enumerate=0;comic=0;backgroundOutline=0;curved=1;" edge="1" parent="1" source="QNIcIMOm-5N9Rosn84Q4-57" target="QNIcIMOm-5N9Rosn84Q4-49">
          <mxGeometry relative="1" as="geometry" />
        </mxCell>
        <mxCell id="QNIcIMOm-5N9Rosn84Q4-57" value="Кнопка &quot;Профиль&quot;" style="text;html=1;strokeColor=none;fillColor=none;align=center;verticalAlign=middle;whiteSpace=wrap;rounded=0;fontSize=20;fontFamily=Helvetica;fontColor=default;metaEdit=0;fixDash=0;snapToPoint=0;enumerate=0;comic=0;backgroundOutline=0;" vertex="1" parent="1">
          <mxGeometry x="2360" y="1300" width="190" height="40" as="geometry" />
        </mxCell>
        <mxCell id="QNIcIMOm-5N9Rosn84Q4-62" style="edgeStyle=orthogonalEdgeStyle;rounded=0;orthogonalLoop=1;jettySize=auto;html=1;exitX=0.5;exitY=0;exitDx=0;exitDy=0;entryX=1;entryY=0.75;entryDx=0;entryDy=0;fontFamily=Helvetica;fontSize=12;fontColor=default;metaEdit=0;fixDash=0;snapToPoint=0;enumerate=0;comic=0;backgroundOutline=0;curved=1;" edge="1" parent="1" source="QNIcIMOm-5N9Rosn84Q4-60" target="QNIcIMOm-5N9Rosn84Q4-12">
          <mxGeometry relative="1" as="geometry" />
        </mxCell>
        <mxCell id="QNIcIMOm-5N9Rosn84Q4-60" value="Кнопка &quot;Выход&quot;" style="text;html=1;strokeColor=none;fillColor=none;align=center;verticalAlign=middle;whiteSpace=wrap;rounded=0;fontSize=20;fontFamily=Helvetica;fontColor=default;metaEdit=0;fixDash=0;snapToPoint=0;enumerate=0;comic=0;backgroundOutline=0;" vertex="1" parent="1">
          <mxGeometry x="2420" y="1060" width="190" height="40" as="geometry" />
        </mxCell>
        <mxCell id="QNIcIMOm-5N9Rosn84Q4-66" style="edgeStyle=orthogonalEdgeStyle;rounded=0;orthogonalLoop=1;jettySize=auto;html=1;exitX=0.5;exitY=1;exitDx=0;exitDy=0;entryX=0.5;entryY=0;entryDx=0;entryDy=0;fontFamily=Helvetica;fontSize=12;fontColor=default;metaEdit=0;fixDash=0;snapToPoint=0;enumerate=0;comic=0;backgroundOutline=0;curved=1;" edge="1" parent="1" source="QNIcIMOm-5N9Rosn84Q4-63" target="QNIcIMOm-5N9Rosn84Q4-65">
          <mxGeometry relative="1" as="geometry" />
        </mxCell>
        <mxCell id="QNIcIMOm-5N9Rosn84Q4-63" value="Кнопка &quot;Оформить заказ&quot;" style="text;html=1;strokeColor=none;fillColor=none;align=center;verticalAlign=middle;whiteSpace=wrap;rounded=0;fontSize=20;fontFamily=Helvetica;fontColor=default;metaEdit=0;fixDash=0;snapToPoint=0;enumerate=0;comic=0;backgroundOutline=0;" vertex="1" parent="1">
          <mxGeometry x="2084" y="1290" width="240" height="40" as="geometry" />
        </mxCell>
        <mxCell id="QNIcIMOm-5N9Rosn84Q4-68" style="edgeStyle=orthogonalEdgeStyle;rounded=0;orthogonalLoop=1;jettySize=auto;html=1;exitX=0.5;exitY=1;exitDx=0;exitDy=0;entryX=0.5;entryY=0;entryDx=0;entryDy=0;fontFamily=Helvetica;fontSize=12;fontColor=default;metaEdit=0;fixDash=0;snapToPoint=0;enumerate=0;comic=0;backgroundOutline=0;curved=1;" edge="1" parent="1" source="QNIcIMOm-5N9Rosn84Q4-65" target="QNIcIMOm-5N9Rosn84Q4-67">
          <mxGeometry relative="1" as="geometry" />
        </mxCell>
        <mxCell id="QNIcIMOm-5N9Rosn84Q4-65" value="&lt;span style=&quot;font-size: 20px;&quot;&gt;Окно &quot;Оформляем заказ&quot;&lt;/span&gt;" style="rounded=1;whiteSpace=wrap;html=1;metaEdit=0;fixDash=0;snapToPoint=0;enumerate=0;comic=0;backgroundOutline=0;" vertex="1" parent="1">
          <mxGeometry x="2084" y="1450" width="240" height="81" as="geometry" />
        </mxCell>
        <mxCell id="QNIcIMOm-5N9Rosn84Q4-70" style="edgeStyle=orthogonalEdgeStyle;rounded=0;orthogonalLoop=1;jettySize=auto;html=1;exitX=0.25;exitY=0;exitDx=0;exitDy=0;entryX=0.5;entryY=1;entryDx=0;entryDy=0;fontFamily=Helvetica;fontSize=12;fontColor=default;metaEdit=0;fixDash=0;snapToPoint=0;enumerate=0;comic=0;backgroundOutline=0;curved=1;" edge="1" parent="1" source="QNIcIMOm-5N9Rosn84Q4-67" target="QNIcIMOm-5N9Rosn84Q4-69">
          <mxGeometry relative="1" as="geometry" />
        </mxCell>
        <mxCell id="QNIcIMOm-5N9Rosn84Q4-89" style="edgeStyle=orthogonalEdgeStyle;rounded=0;orthogonalLoop=1;jettySize=auto;html=1;exitX=0;exitY=0.5;exitDx=0;exitDy=0;entryX=0.5;entryY=1;entryDx=0;entryDy=0;fontFamily=Helvetica;fontSize=12;fontColor=default;metaEdit=0;fixDash=0;snapToPoint=0;enumerate=0;comic=0;backgroundOutline=0;curved=1;" edge="1" parent="1" source="QNIcIMOm-5N9Rosn84Q4-67" target="QNIcIMOm-5N9Rosn84Q4-87">
          <mxGeometry relative="1" as="geometry">
            <mxPoint x="1780" y="1640.5" as="targetPoint" />
          </mxGeometry>
        </mxCell>
        <mxCell id="QNIcIMOm-5N9Rosn84Q4-67" value="&lt;span style=&quot;font-size: 20px;&quot;&gt;Окно &quot;Номер заказа&quot;&lt;/span&gt;" style="rounded=1;whiteSpace=wrap;html=1;metaEdit=0;fixDash=0;snapToPoint=0;enumerate=0;comic=0;backgroundOutline=0;" vertex="1" parent="1">
          <mxGeometry x="1980" y="1678" width="240" height="81" as="geometry" />
        </mxCell>
        <mxCell id="QNIcIMOm-5N9Rosn84Q4-71" style="edgeStyle=orthogonalEdgeStyle;rounded=0;orthogonalLoop=1;jettySize=auto;html=1;exitX=0.5;exitY=0;exitDx=0;exitDy=0;entryX=1;entryY=0.75;entryDx=0;entryDy=0;fontFamily=Helvetica;fontSize=12;fontColor=default;metaEdit=0;fixDash=0;snapToPoint=0;enumerate=0;comic=0;backgroundOutline=0;curved=1;" edge="1" parent="1" source="QNIcIMOm-5N9Rosn84Q4-69" target="QNIcIMOm-5N9Rosn84Q4-38">
          <mxGeometry relative="1" as="geometry" />
        </mxCell>
        <mxCell id="QNIcIMOm-5N9Rosn84Q4-69" value="Крестик" style="text;html=1;strokeColor=none;fillColor=none;align=center;verticalAlign=middle;whiteSpace=wrap;rounded=0;fontSize=20;fontFamily=Helvetica;fontColor=default;metaEdit=0;fixDash=0;snapToPoint=0;enumerate=0;comic=0;backgroundOutline=0;" vertex="1" parent="1">
          <mxGeometry x="1980" y="1580" width="120" height="40" as="geometry" />
        </mxCell>
        <mxCell id="QNIcIMOm-5N9Rosn84Q4-74" style="edgeStyle=orthogonalEdgeStyle;rounded=0;orthogonalLoop=1;jettySize=auto;html=1;exitX=1;exitY=0.5;exitDx=0;exitDy=0;entryX=0.25;entryY=0;entryDx=0;entryDy=0;fontFamily=Helvetica;fontSize=12;fontColor=default;metaEdit=0;fixDash=0;snapToPoint=0;enumerate=0;comic=0;backgroundOutline=0;curved=1;" edge="1" parent="1" source="QNIcIMOm-5N9Rosn84Q4-72" target="QNIcIMOm-5N9Rosn84Q4-12">
          <mxGeometry relative="1" as="geometry" />
        </mxCell>
        <mxCell id="QNIcIMOm-5N9Rosn84Q4-72" value="Кнопка &quot;Оформить заказ&quot;" style="text;html=1;strokeColor=none;fillColor=none;align=center;verticalAlign=middle;whiteSpace=wrap;rounded=0;fontSize=20;fontFamily=Helvetica;fontColor=default;metaEdit=0;fixDash=0;snapToPoint=0;enumerate=0;comic=0;backgroundOutline=0;" vertex="1" parent="1">
          <mxGeometry x="1660" y="460" width="240" height="40" as="geometry" />
        </mxCell>
        <mxCell id="QNIcIMOm-5N9Rosn84Q4-77" style="edgeStyle=orthogonalEdgeStyle;rounded=0;orthogonalLoop=1;jettySize=auto;html=1;exitX=0.5;exitY=0;exitDx=0;exitDy=0;entryX=0;entryY=0.75;entryDx=0;entryDy=0;fontFamily=Helvetica;fontSize=12;fontColor=default;metaEdit=0;fixDash=0;snapToPoint=0;enumerate=0;comic=0;backgroundOutline=0;curved=1;" edge="1" parent="1" source="QNIcIMOm-5N9Rosn84Q4-76" target="QNIcIMOm-5N9Rosn84Q4-23">
          <mxGeometry relative="1" as="geometry" />
        </mxCell>
        <mxCell id="QNIcIMOm-5N9Rosn84Q4-76" value="Переход по прямой ссылке&amp;nbsp;&lt;i style=&quot;border-color: var(--border-color); box-sizing: inherit; font-family: &amp;quot;YS Text&amp;quot;, &amp;quot;Helvetica Neue&amp;quot;, Arial, Helvetica, sans-serif; font-size: 15px; background-color: rgb(255, 255, 255);&quot; class=&quot;wiki-italic&quot;&gt;—&lt;/i&gt;&amp;nbsp;&lt;br style=&quot;border-color: var(--border-color); font-size: 15px;&quot;&gt;&lt;div style=&quot;font-size: 15px;&quot;&gt;&amp;nbsp;&lt;span style=&quot;background-color: initial; border-color: var(--border-color); box-sizing: inherit; font-size: 15px;&quot; class=&quot;MagicLink-String&quot;&gt;&lt;/span&gt;&lt;span style=&quot;background-color: initial; font-size: 15px;&quot;&gt;&lt;font style=&quot;font-size: 15px;&quot; face=&quot;YS Text, Helvetica Neue, Arial, Helvetica, sans-serif&quot;&gt;https://burger-frontend-3.prakticum-team.ru/register&lt;/font&gt;&lt;/span&gt;&lt;/div&gt;" style="rounded=1;whiteSpace=wrap;html=1;fontSize=15;align=center;metaEdit=0;fixDash=0;snapToPoint=0;enumerate=0;comic=0;backgroundOutline=0;" vertex="1" parent="1">
          <mxGeometry x="1490" y="951" width="290" height="79" as="geometry" />
        </mxCell>
        <mxCell id="QNIcIMOm-5N9Rosn84Q4-79" style="edgeStyle=orthogonalEdgeStyle;rounded=0;orthogonalLoop=1;jettySize=auto;html=1;exitX=0.5;exitY=1;exitDx=0;exitDy=0;entryX=0.75;entryY=0;entryDx=0;entryDy=0;fontFamily=Helvetica;fontSize=12;fontColor=default;metaEdit=0;fixDash=0;snapToPoint=0;enumerate=0;comic=0;backgroundOutline=0;curved=1;" edge="1" parent="1" source="QNIcIMOm-5N9Rosn84Q4-78" target="QNIcIMOm-5N9Rosn84Q4-31">
          <mxGeometry relative="1" as="geometry" />
        </mxCell>
        <mxCell id="QNIcIMOm-5N9Rosn84Q4-78" value="Переход по прямой ссылке&amp;nbsp;&lt;span class=&quot;wiki-italic&quot; style=&quot;border-color: var(--border-color); font-size: 15px; box-sizing: inherit; color: rgba(0, 0, 0, 0.85); font-family: &amp;quot;YS Text&amp;quot;, &amp;quot;Helvetica Neue&amp;quot;, Arial, Helvetica, sans-serif; text-align: start; background-color: rgb(255, 255, 255);&quot;&gt;— https://burger-frontend-3.prakticum-team.ru/forgot-password&lt;/span&gt;" style="rounded=1;whiteSpace=wrap;html=1;fontStyle=0;fontSize=15;verticalAlign=middle;metaEdit=0;fixDash=0;snapToPoint=0;enumerate=0;comic=0;backgroundOutline=0;" vertex="1" parent="1">
          <mxGeometry x="2725" y="390" width="310" height="60" as="geometry" />
        </mxCell>
        <mxCell id="QNIcIMOm-5N9Rosn84Q4-81" style="edgeStyle=orthogonalEdgeStyle;rounded=0;orthogonalLoop=1;jettySize=auto;html=1;exitX=0.5;exitY=1;exitDx=0;exitDy=0;entryX=0.75;entryY=0;entryDx=0;entryDy=0;fontFamily=Helvetica;fontSize=12;fontColor=default;metaEdit=0;fixDash=0;snapToPoint=0;enumerate=0;comic=0;backgroundOutline=0;curved=1;" edge="1" parent="1" source="QNIcIMOm-5N9Rosn84Q4-80" target="QNIcIMOm-5N9Rosn84Q4-12">
          <mxGeometry relative="1" as="geometry" />
        </mxCell>
        <mxCell id="QNIcIMOm-5N9Rosn84Q4-80" value="Переход по прямой ссылке&amp;nbsp;&lt;i style=&quot;border-color: var(--border-color); box-sizing: inherit; font-family: &amp;quot;YS Text&amp;quot;, &amp;quot;Helvetica Neue&amp;quot;, Arial, Helvetica, sans-serif; font-size: 15px; background-color: rgb(255, 255, 255);&quot; class=&quot;wiki-italic&quot;&gt;—&lt;/i&gt;&amp;nbsp;https://burger-frontend-3.prakticum-team.ru/login" style="rounded=1;whiteSpace=wrap;html=1;fontSize=15;align=center;metaEdit=0;fixDash=0;snapToPoint=0;enumerate=0;comic=0;backgroundOutline=0;" vertex="1" parent="1">
          <mxGeometry x="2134" y="370" width="280" height="70" as="geometry" />
        </mxCell>
        <mxCell id="QNIcIMOm-5N9Rosn84Q4-84" style="edgeStyle=orthogonalEdgeStyle;rounded=0;orthogonalLoop=1;jettySize=auto;html=1;exitX=1;exitY=0.75;exitDx=0;exitDy=0;entryX=0.25;entryY=0;entryDx=0;entryDy=0;fontFamily=Helvetica;fontSize=12;fontColor=default;curved=1;metaEdit=0;fixDash=0;snapToPoint=0;enumerate=0;comic=0;backgroundOutline=0;" edge="1" parent="1" source="QNIcIMOm-5N9Rosn84Q4-82" target="QNIcIMOm-5N9Rosn84Q4-4">
          <mxGeometry relative="1" as="geometry" />
        </mxCell>
        <mxCell id="QNIcIMOm-5N9Rosn84Q4-82" value="Переход по прямой ссылке&amp;nbsp;&lt;i style=&quot;border-color: var(--border-color); box-sizing: inherit; font-family: &amp;quot;YS Text&amp;quot;, &amp;quot;Helvetica Neue&amp;quot;, Arial, Helvetica, sans-serif; font-size: 15px; background-color: rgb(255, 255, 255);&quot; class=&quot;wiki-italic&quot;&gt;—&lt;/i&gt;&amp;nbsp;&lt;br style=&quot;border-color: var(--border-color); font-size: 15px;&quot;&gt;&lt;div style=&quot;font-size: 15px;&quot;&gt;&lt;/div&gt;&lt;font face=&quot;YS Text, Helvetica Neue, Arial, Helvetica, sans-serif&quot; style=&quot;font-size: 15px;&quot;&gt;https://burger-frontend-3.prakticum-team.ru&lt;/font&gt;" style="rounded=1;whiteSpace=wrap;html=1;fontSize=15;align=center;metaEdit=0;fixDash=0;snapToPoint=0;enumerate=0;comic=0;backgroundOutline=0;" vertex="1" parent="1">
          <mxGeometry x="990" y="420" width="300" height="70" as="geometry" />
        </mxCell>
        <mxCell id="QNIcIMOm-5N9Rosn84Q4-96" style="edgeStyle=orthogonalEdgeStyle;rounded=0;orthogonalLoop=1;jettySize=auto;html=1;exitX=0.5;exitY=1;exitDx=0;exitDy=0;entryX=0;entryY=0.5;entryDx=0;entryDy=0;fontFamily=Helvetica;fontSize=12;fontColor=default;metaEdit=0;fixDash=0;snapToPoint=0;enumerate=0;comic=0;backgroundOutline=0;curved=1;" edge="1" parent="1" source="QNIcIMOm-5N9Rosn84Q4-83" target="QNIcIMOm-5N9Rosn84Q4-92">
          <mxGeometry relative="1" as="geometry" />
        </mxCell>
        <mxCell id="QNIcIMOm-5N9Rosn84Q4-97" style="edgeStyle=orthogonalEdgeStyle;rounded=0;orthogonalLoop=1;jettySize=auto;html=1;exitX=0.75;exitY=1;exitDx=0;exitDy=0;entryX=0;entryY=0.5;entryDx=0;entryDy=0;fontFamily=Helvetica;fontSize=12;fontColor=default;metaEdit=0;fixDash=0;snapToPoint=0;enumerate=0;comic=0;backgroundOutline=0;curved=1;" edge="1" parent="1" source="QNIcIMOm-5N9Rosn84Q4-83" target="QNIcIMOm-5N9Rosn84Q4-91">
          <mxGeometry relative="1" as="geometry" />
        </mxCell>
        <mxCell id="QNIcIMOm-5N9Rosn84Q4-83" value="&lt;font style=&quot;font-size: 20px;&quot;&gt;Окно &quot;Детали ингредиента&quot;&lt;/font&gt;" style="rounded=1;whiteSpace=wrap;html=1;metaEdit=0;fixDash=0;snapToPoint=0;enumerate=0;comic=0;backgroundOutline=0;" vertex="1" parent="1">
          <mxGeometry x="640" y="500" width="240" height="81" as="geometry" />
        </mxCell>
        <mxCell id="QNIcIMOm-5N9Rosn84Q4-86" style="edgeStyle=orthogonalEdgeStyle;rounded=0;orthogonalLoop=1;jettySize=auto;html=1;exitX=0.75;exitY=1;exitDx=0;exitDy=0;entryX=0.25;entryY=0;entryDx=0;entryDy=0;fontFamily=Helvetica;fontSize=12;fontColor=default;metaEdit=0;fixDash=0;snapToPoint=0;enumerate=0;comic=0;backgroundOutline=0;curved=1;" edge="1" parent="1" source="QNIcIMOm-5N9Rosn84Q4-85" target="QNIcIMOm-5N9Rosn84Q4-6">
          <mxGeometry relative="1" as="geometry" />
        </mxCell>
        <mxCell id="QNIcIMOm-5N9Rosn84Q4-85" value="Переход по прямой ссылке&amp;nbsp;&lt;i style=&quot;border-color: var(--border-color); box-sizing: inherit; font-family: &amp;quot;YS Text&amp;quot;, &amp;quot;Helvetica Neue&amp;quot;, Arial, Helvetica, sans-serif; font-size: 15px; background-color: rgb(255, 255, 255);&quot; class=&quot;wiki-italic&quot;&gt;—&lt;/i&gt;&amp;nbsp;&lt;span style=&quot;background-color: initial; font-size: 15px;&quot;&gt;&amp;nbsp;&lt;/span&gt;&lt;br style=&quot;font-size: 15px;&quot;&gt;&lt;font face=&quot;YS Text, Helvetica Neue, Arial, Helvetica, sans-serif&quot; style=&quot;font-size: 15px;&quot;&gt;https://burger-frontend-3.prakticum-team.ru/feed&lt;/font&gt;" style="rounded=1;whiteSpace=wrap;html=1;fontSize=15;align=center;metaEdit=0;fixDash=0;snapToPoint=0;enumerate=0;comic=0;backgroundOutline=0;" vertex="1" parent="1">
          <mxGeometry x="560" y="850" width="330" height="60" as="geometry" />
        </mxCell>
        <mxCell id="QNIcIMOm-5N9Rosn84Q4-90" style="edgeStyle=orthogonalEdgeStyle;rounded=0;orthogonalLoop=1;jettySize=auto;html=1;exitX=0.5;exitY=0;exitDx=0;exitDy=0;fontFamily=Helvetica;fontSize=12;fontColor=default;metaEdit=0;fixDash=0;snapToPoint=0;enumerate=0;comic=0;backgroundOutline=0;curved=1;entryX=0.75;entryY=1;entryDx=0;entryDy=0;" edge="1" parent="1" source="QNIcIMOm-5N9Rosn84Q4-87" target="QNIcIMOm-5N9Rosn84Q4-38">
          <mxGeometry relative="1" as="geometry">
            <mxPoint x="1610" y="1270" as="targetPoint" />
          </mxGeometry>
        </mxCell>
        <mxCell id="QNIcIMOm-5N9Rosn84Q4-87" value="Клик по свободному месту вне окна" style="text;html=1;strokeColor=none;fillColor=none;align=center;verticalAlign=middle;whiteSpace=wrap;rounded=0;fontSize=20;fontFamily=Helvetica;fontColor=default;metaEdit=0;fixDash=0;snapToPoint=0;enumerate=0;comic=0;backgroundOutline=0;" vertex="1" parent="1">
          <mxGeometry x="1800" y="1490" width="220" height="60" as="geometry" />
        </mxCell>
        <mxCell id="QNIcIMOm-5N9Rosn84Q4-98" style="edgeStyle=orthogonalEdgeStyle;rounded=0;orthogonalLoop=1;jettySize=auto;html=1;exitX=1;exitY=0.5;exitDx=0;exitDy=0;entryX=0;entryY=0.25;entryDx=0;entryDy=0;fontFamily=Helvetica;fontSize=12;fontColor=default;curved=1;metaEdit=0;fixDash=0;snapToPoint=0;enumerate=0;comic=0;backgroundOutline=0;" edge="1" parent="1" source="QNIcIMOm-5N9Rosn84Q4-91" target="QNIcIMOm-5N9Rosn84Q4-4">
          <mxGeometry relative="1" as="geometry" />
        </mxCell>
        <mxCell id="QNIcIMOm-5N9Rosn84Q4-91" value="Крестик" style="text;html=1;strokeColor=none;fillColor=none;align=center;verticalAlign=middle;whiteSpace=wrap;rounded=0;fontSize=20;fontFamily=Helvetica;fontColor=default;metaEdit=0;fixDash=0;snapToPoint=0;enumerate=0;comic=0;backgroundOutline=0;" vertex="1" parent="1">
          <mxGeometry x="910" y="591" width="120" height="40" as="geometry" />
        </mxCell>
        <mxCell id="QNIcIMOm-5N9Rosn84Q4-99" style="edgeStyle=orthogonalEdgeStyle;rounded=0;orthogonalLoop=1;jettySize=auto;html=1;exitX=1;exitY=0.5;exitDx=0;exitDy=0;entryX=0;entryY=0.5;entryDx=0;entryDy=0;fontFamily=Helvetica;fontSize=12;fontColor=default;metaEdit=0;fixDash=0;snapToPoint=0;enumerate=0;comic=0;backgroundOutline=0;curved=1;" edge="1" parent="1" source="QNIcIMOm-5N9Rosn84Q4-92" target="QNIcIMOm-5N9Rosn84Q4-4">
          <mxGeometry relative="1" as="geometry" />
        </mxCell>
        <mxCell id="QNIcIMOm-5N9Rosn84Q4-92" value="Клик по свободному месту вне окна" style="text;html=1;strokeColor=none;fillColor=none;align=center;verticalAlign=middle;whiteSpace=wrap;rounded=0;fontSize=20;fontFamily=Helvetica;fontColor=default;metaEdit=0;fixDash=0;snapToPoint=0;enumerate=0;comic=0;backgroundOutline=0;" vertex="1" parent="1">
          <mxGeometry x="860" y="651" width="220" height="60" as="geometry" />
        </mxCell>
        <mxCell id="QNIcIMOm-5N9Rosn84Q4-100" style="edgeStyle=orthogonalEdgeStyle;rounded=0;orthogonalLoop=1;jettySize=auto;html=1;exitX=0.5;exitY=1;exitDx=0;exitDy=0;entryX=0;entryY=0.5;entryDx=0;entryDy=0;fontFamily=Helvetica;fontSize=12;fontColor=default;metaEdit=0;fixDash=0;snapToPoint=0;enumerate=0;comic=0;backgroundOutline=0;curved=1;" edge="1" parent="1" source="QNIcIMOm-5N9Rosn84Q4-102" target="QNIcIMOm-5N9Rosn84Q4-104">
          <mxGeometry relative="1" as="geometry">
            <mxPoint x="1230" y="1450" as="targetPoint" />
          </mxGeometry>
        </mxCell>
        <mxCell id="QNIcIMOm-5N9Rosn84Q4-101" style="edgeStyle=orthogonalEdgeStyle;rounded=0;orthogonalLoop=1;jettySize=auto;html=1;exitX=1;exitY=0.75;exitDx=0;exitDy=0;entryX=0;entryY=0.5;entryDx=0;entryDy=0;fontFamily=Helvetica;fontSize=12;fontColor=default;metaEdit=0;fixDash=0;snapToPoint=0;enumerate=0;comic=0;backgroundOutline=0;curved=1;" edge="1" parent="1" source="QNIcIMOm-5N9Rosn84Q4-102" target="QNIcIMOm-5N9Rosn84Q4-103">
          <mxGeometry relative="1" as="geometry" />
        </mxCell>
        <mxCell id="QNIcIMOm-5N9Rosn84Q4-102" value="&lt;font style=&quot;font-size: 20px;&quot;&gt;Окно &quot;Детали ингредиента&quot;&lt;/font&gt;" style="rounded=1;whiteSpace=wrap;html=1;metaEdit=0;fixDash=0;snapToPoint=0;enumerate=0;comic=0;backgroundOutline=0;" vertex="1" parent="1">
          <mxGeometry x="890" y="1299" width="240" height="81" as="geometry" />
        </mxCell>
        <mxCell id="QNIcIMOm-5N9Rosn84Q4-112" style="edgeStyle=orthogonalEdgeStyle;rounded=0;orthogonalLoop=1;jettySize=auto;html=1;exitX=1;exitY=0.5;exitDx=0;exitDy=0;entryX=0;entryY=0.5;entryDx=0;entryDy=0;fontFamily=Helvetica;fontSize=12;fontColor=default;metaEdit=0;fixDash=0;snapToPoint=0;enumerate=0;comic=0;backgroundOutline=0;curved=1;" edge="1" parent="1" source="QNIcIMOm-5N9Rosn84Q4-103" target="QNIcIMOm-5N9Rosn84Q4-38">
          <mxGeometry relative="1" as="geometry" />
        </mxCell>
        <mxCell id="QNIcIMOm-5N9Rosn84Q4-103" value="Крестик" style="text;html=1;strokeColor=none;fillColor=none;align=center;verticalAlign=middle;whiteSpace=wrap;rounded=0;fontSize=20;fontFamily=Helvetica;fontColor=default;metaEdit=0;fixDash=0;snapToPoint=0;enumerate=0;comic=0;backgroundOutline=0;" vertex="1" parent="1">
          <mxGeometry x="1240" y="1340" width="120" height="40" as="geometry" />
        </mxCell>
        <mxCell id="QNIcIMOm-5N9Rosn84Q4-113" style="edgeStyle=orthogonalEdgeStyle;rounded=0;orthogonalLoop=1;jettySize=auto;html=1;exitX=1;exitY=0.5;exitDx=0;exitDy=0;fontFamily=Helvetica;fontSize=12;fontColor=default;entryX=0.5;entryY=1;entryDx=0;entryDy=0;metaEdit=0;fixDash=0;snapToPoint=0;enumerate=0;comic=0;backgroundOutline=0;curved=1;" edge="1" parent="1" source="QNIcIMOm-5N9Rosn84Q4-104" target="QNIcIMOm-5N9Rosn84Q4-38">
          <mxGeometry relative="1" as="geometry">
            <mxPoint x="1300" y="1360" as="targetPoint" />
          </mxGeometry>
        </mxCell>
        <mxCell id="QNIcIMOm-5N9Rosn84Q4-104" value="Клик по свободному месту вне окна" style="text;html=1;strokeColor=none;fillColor=none;align=center;verticalAlign=middle;whiteSpace=wrap;rounded=0;fontSize=20;fontFamily=Helvetica;fontColor=default;metaEdit=0;fixDash=0;snapToPoint=0;enumerate=0;comic=0;backgroundOutline=0;" vertex="1" parent="1">
          <mxGeometry x="1150" y="1410" width="220" height="60" as="geometry" />
        </mxCell>
        <mxCell id="QNIcIMOm-5N9Rosn84Q4-105" style="edgeStyle=orthogonalEdgeStyle;rounded=0;orthogonalLoop=1;jettySize=auto;html=1;exitX=0.5;exitY=1;exitDx=0;exitDy=0;fontFamily=Helvetica;fontSize=12;fontColor=default;metaEdit=0;fixDash=0;snapToPoint=0;enumerate=0;comic=0;backgroundOutline=0;" edge="1" parent="1" source="QNIcIMOm-5N9Rosn84Q4-67" target="QNIcIMOm-5N9Rosn84Q4-67">
          <mxGeometry relative="1" as="geometry" />
        </mxCell>
        <mxCell id="QNIcIMOm-5N9Rosn84Q4-107" value="Клик на ингредиент" style="text;html=1;strokeColor=none;fillColor=none;align=center;verticalAlign=middle;whiteSpace=wrap;rounded=0;fontSize=20;fontFamily=Helvetica;fontColor=default;metaEdit=0;fixDash=0;snapToPoint=0;enumerate=0;comic=0;backgroundOutline=0;" vertex="1" parent="1">
          <mxGeometry x="950" y="500" width="220" height="40" as="geometry" />
        </mxCell>
        <mxCell id="QNIcIMOm-5N9Rosn84Q4-111" value="" style="edgeStyle=orthogonalEdgeStyle;rounded=0;orthogonalLoop=1;jettySize=auto;html=1;exitX=0;exitY=0.25;exitDx=0;exitDy=0;entryX=1;entryY=0.25;entryDx=0;entryDy=0;fontFamily=Helvetica;fontSize=12;fontColor=default;metaEdit=0;fixDash=0;snapToPoint=0;enumerate=0;comic=0;backgroundOutline=0;curved=1;" edge="1" parent="1" source="QNIcIMOm-5N9Rosn84Q4-38" target="QNIcIMOm-5N9Rosn84Q4-110">
          <mxGeometry relative="1" as="geometry">
            <mxPoint x="1550" y="1200" as="sourcePoint" />
            <mxPoint x="1240" y="1210" as="targetPoint" />
          </mxGeometry>
        </mxCell>
        <mxCell id="QNIcIMOm-5N9Rosn84Q4-110" value="Клик на ингредиент" style="text;html=1;strokeColor=none;fillColor=none;align=center;verticalAlign=middle;whiteSpace=wrap;rounded=0;fontSize=20;fontFamily=Helvetica;fontColor=default;metaEdit=0;fixDash=0;snapToPoint=0;enumerate=0;comic=0;backgroundOutline=0;" vertex="1" parent="1">
          <mxGeometry x="1220" y="1240" width="220" height="40" as="geometry" />
        </mxCell>
        <mxCell id="QNIcIMOm-5N9Rosn84Q4-124" style="edgeStyle=orthogonalEdgeStyle;rounded=0;orthogonalLoop=1;jettySize=auto;html=1;exitX=0.5;exitY=0;exitDx=0;exitDy=0;entryX=0.5;entryY=1;entryDx=0;entryDy=0;fontFamily=Helvetica;fontSize=12;fontColor=default;curved=1;" edge="1" parent="1" source="QNIcIMOm-5N9Rosn84Q4-121" target="QNIcIMOm-5N9Rosn84Q4-35">
          <mxGeometry relative="1" as="geometry" />
        </mxCell>
        <mxCell id="QNIcIMOm-5N9Rosn84Q4-121" value="Переход по прямой ссылке&amp;nbsp;&lt;span class=&quot;wiki-italic&quot; style=&quot;border-color: var(--border-color); font-size: 15px; box-sizing: inherit; color: rgba(0, 0, 0, 0.85); font-family: &amp;quot;YS Text&amp;quot;, &amp;quot;Helvetica Neue&amp;quot;, Arial, Helvetica, sans-serif; text-align: start; background-color: rgb(255, 255, 255);&quot;&gt;— https://burger-frontend-3.prakticum-team.ru/reset-password&lt;/span&gt;" style="rounded=1;whiteSpace=wrap;html=1;fontStyle=0;fontSize=15;verticalAlign=middle;metaEdit=0;fixDash=0;snapToPoint=0;enumerate=0;comic=0;backgroundOutline=0;" vertex="1" parent="1">
          <mxGeometry x="2710" y="951" width="310" height="60" as="geometry" />
        </mxCell>
        <mxCell id="QNIcIMOm-5N9Rosn84Q4-126" value="" style="edgeStyle=orthogonalEdgeStyle;rounded=0;orthogonalLoop=1;jettySize=auto;html=1;exitX=0;exitY=0.5;exitDx=0;exitDy=0;entryX=0.5;entryY=1;entryDx=0;entryDy=0;fontFamily=Helvetica;fontSize=12;fontColor=default;metaEdit=0;fixDash=0;snapToPoint=0;enumerate=0;comic=0;backgroundOutline=0;curved=1;" edge="1" parent="1" source="QNIcIMOm-5N9Rosn84Q4-35" target="QNIcIMOm-5N9Rosn84Q4-125">
          <mxGeometry relative="1" as="geometry">
            <mxPoint x="2700" y="860" as="sourcePoint" />
            <mxPoint x="2340" y="589" as="targetPoint" />
          </mxGeometry>
        </mxCell>
        <mxCell id="QNIcIMOm-5N9Rosn84Q4-125" value="Кнопка &quot;Сохранить&quot;" style="text;html=1;strokeColor=none;fillColor=none;align=center;verticalAlign=middle;whiteSpace=wrap;rounded=0;fontSize=20;fontFamily=Helvetica;fontColor=default;metaEdit=0;fixDash=0;snapToPoint=0;enumerate=0;comic=0;backgroundOutline=0;" vertex="1" parent="1">
          <mxGeometry x="2515" y="761" width="240" height="40" as="geometry" />
        </mxCell>
        <mxCell id="QNIcIMOm-5N9Rosn84Q4-128" style="edgeStyle=orthogonalEdgeStyle;rounded=0;orthogonalLoop=1;jettySize=auto;html=1;exitX=1;exitY=0.5;exitDx=0;exitDy=0;entryX=0.25;entryY=1;entryDx=0;entryDy=0;fontFamily=Helvetica;fontSize=12;fontColor=default;curved=1;" edge="1" parent="1" source="QNIcIMOm-5N9Rosn84Q4-127" target="QNIcIMOm-5N9Rosn84Q4-102">
          <mxGeometry relative="1" as="geometry" />
        </mxCell>
        <mxCell id="QNIcIMOm-5N9Rosn84Q4-127" value="Переход по прямой ссылке&amp;nbsp;&lt;i style=&quot;border-color: var(--border-color); box-sizing: inherit; font-family: &amp;quot;YS Text&amp;quot;, &amp;quot;Helvetica Neue&amp;quot;, Arial, Helvetica, sans-serif; font-size: 15px; background-color: rgb(255, 255, 255);&quot; class=&quot;wiki-italic&quot;&gt;—&lt;/i&gt;&amp;nbsp;&lt;span style=&quot;background-color: initial; font-size: 15px;&quot;&gt;&amp;nbsp;&lt;/span&gt;&lt;br style=&quot;font-size: 15px;&quot;&gt;&lt;font face=&quot;YS Text, Helvetica Neue, Arial, Helvetica, sans-serif&quot; style=&quot;font-size: 15px;&quot;&gt;https://burger-frontend-3.prakticum-team.ru/ingredient/:id&lt;/font&gt;, где :id — идентификатор ингредиента&lt;font face=&quot;YS Text, Helvetica Neue, Arial, Helvetica, sans-serif&quot; style=&quot;font-size: 15px;&quot;&gt;&lt;br&gt;&lt;/font&gt;" style="rounded=1;whiteSpace=wrap;html=1;fontSize=15;align=center;metaEdit=0;fixDash=0;snapToPoint=0;enumerate=0;comic=0;backgroundOutline=0;" vertex="1" parent="1">
          <mxGeometry x="670" y="1470" width="340" height="80" as="geometry" />
        </mxCell>
        <mxCell id="QNIcIMOm-5N9Rosn84Q4-133" style="edgeStyle=orthogonalEdgeStyle;rounded=0;orthogonalLoop=1;jettySize=auto;html=1;exitX=0;exitY=0.5;exitDx=0;exitDy=0;entryX=0.75;entryY=1;entryDx=0;entryDy=0;fontFamily=Helvetica;fontSize=12;fontColor=default;curved=1;" edge="1" parent="1" source="QNIcIMOm-5N9Rosn84Q4-129" target="QNIcIMOm-5N9Rosn84Q4-131">
          <mxGeometry relative="1" as="geometry" />
        </mxCell>
        <mxCell id="QNIcIMOm-5N9Rosn84Q4-129" value="Нажатие на карточку заказа" style="text;html=1;strokeColor=none;fillColor=none;align=center;verticalAlign=middle;whiteSpace=wrap;rounded=0;fontSize=20;fontFamily=Helvetica;fontColor=default;metaEdit=0;fixDash=0;snapToPoint=0;enumerate=0;comic=0;backgroundOutline=0;" vertex="1" parent="1">
          <mxGeometry x="730" y="1134.5" width="240" height="40" as="geometry" />
        </mxCell>
        <mxCell id="QNIcIMOm-5N9Rosn84Q4-138" style="edgeStyle=orthogonalEdgeStyle;rounded=0;orthogonalLoop=1;jettySize=auto;html=1;exitX=1;exitY=0.25;exitDx=0;exitDy=0;entryX=0;entryY=0.5;entryDx=0;entryDy=0;fontFamily=Helvetica;fontSize=12;fontColor=default;curved=1;" edge="1" parent="1" source="QNIcIMOm-5N9Rosn84Q4-131" target="QNIcIMOm-5N9Rosn84Q4-136">
          <mxGeometry relative="1" as="geometry" />
        </mxCell>
        <mxCell id="QNIcIMOm-5N9Rosn84Q4-131" value="&lt;font style=&quot;font-size: 20px;&quot;&gt;Окно &quot;Детали заказа&quot;&lt;/font&gt;" style="rounded=1;whiteSpace=wrap;html=1;metaEdit=0;fixDash=0;snapToPoint=0;enumerate=0;comic=0;backgroundOutline=0;" vertex="1" parent="1">
          <mxGeometry x="240" y="1000" width="240" height="81" as="geometry" />
        </mxCell>
        <mxCell id="QNIcIMOm-5N9Rosn84Q4-134" style="edgeStyle=orthogonalEdgeStyle;rounded=0;orthogonalLoop=1;jettySize=auto;html=1;exitX=1;exitY=0.75;exitDx=0;exitDy=0;entryX=0;entryY=0.5;entryDx=0;entryDy=0;fontFamily=Helvetica;fontSize=12;fontColor=default;metaEdit=0;fixDash=0;snapToPoint=0;enumerate=0;comic=0;backgroundOutline=0;curved=1;" edge="1" parent="1" source="QNIcIMOm-5N9Rosn84Q4-131" target="QNIcIMOm-5N9Rosn84Q4-135">
          <mxGeometry relative="1" as="geometry">
            <mxPoint x="370" y="645" as="sourcePoint" />
          </mxGeometry>
        </mxCell>
        <mxCell id="QNIcIMOm-5N9Rosn84Q4-137" style="edgeStyle=orthogonalEdgeStyle;rounded=0;orthogonalLoop=1;jettySize=auto;html=1;entryX=0;entryY=0.75;entryDx=0;entryDy=0;fontFamily=Helvetica;fontSize=12;fontColor=default;curved=1;" edge="1" parent="1" source="QNIcIMOm-5N9Rosn84Q4-135" target="QNIcIMOm-5N9Rosn84Q4-6">
          <mxGeometry relative="1" as="geometry" />
        </mxCell>
        <mxCell id="QNIcIMOm-5N9Rosn84Q4-135" value="Крестик" style="text;html=1;strokeColor=none;fillColor=none;align=center;verticalAlign=middle;whiteSpace=wrap;rounded=0;fontSize=20;fontFamily=Helvetica;fontColor=default;metaEdit=0;fixDash=0;snapToPoint=0;enumerate=0;comic=0;backgroundOutline=0;" vertex="1" parent="1">
          <mxGeometry x="600" y="1060" width="120" height="40" as="geometry" />
        </mxCell>
        <mxCell id="QNIcIMOm-5N9Rosn84Q4-139" style="edgeStyle=orthogonalEdgeStyle;rounded=0;orthogonalLoop=1;jettySize=auto;html=1;exitX=1;exitY=0.5;exitDx=0;exitDy=0;entryX=0;entryY=0.25;entryDx=0;entryDy=0;fontFamily=Helvetica;fontSize=12;fontColor=default;curved=1;" edge="1" parent="1" source="QNIcIMOm-5N9Rosn84Q4-136" target="QNIcIMOm-5N9Rosn84Q4-6">
          <mxGeometry relative="1" as="geometry" />
        </mxCell>
        <mxCell id="QNIcIMOm-5N9Rosn84Q4-136" value="Клик по свободному месту вне окна" style="text;html=1;strokeColor=none;fillColor=none;align=center;verticalAlign=middle;whiteSpace=wrap;rounded=0;fontSize=20;fontFamily=Helvetica;fontColor=default;metaEdit=0;fixDash=0;snapToPoint=0;enumerate=0;comic=0;backgroundOutline=0;" vertex="1" parent="1">
          <mxGeometry x="530" y="951" width="220" height="60" as="geometry" />
        </mxCell>
        <mxCell id="QNIcIMOm-5N9Rosn84Q4-143" style="edgeStyle=orthogonalEdgeStyle;rounded=0;orthogonalLoop=1;jettySize=auto;html=1;exitX=0.5;exitY=1;exitDx=0;exitDy=0;entryX=0.5;entryY=0;entryDx=0;entryDy=0;fontFamily=Helvetica;fontSize=12;fontColor=default;curved=1;" edge="1" parent="1" source="QNIcIMOm-5N9Rosn84Q4-142" target="QNIcIMOm-5N9Rosn84Q4-131">
          <mxGeometry relative="1" as="geometry" />
        </mxCell>
        <mxCell id="QNIcIMOm-5N9Rosn84Q4-142" value="Переход по прямой ссылке&amp;nbsp;&lt;i style=&quot;border-color: var(--border-color); box-sizing: inherit; font-family: &amp;quot;YS Text&amp;quot;, &amp;quot;Helvetica Neue&amp;quot;, Arial, Helvetica, sans-serif; font-size: 15px;&quot; class=&quot;wiki-italic&quot;&gt;—&lt;/i&gt;&amp;nbsp;&lt;span style=&quot;font-size: 15px;&quot;&gt;&amp;nbsp;&lt;/span&gt;&lt;br style=&quot;font-size: 15px;&quot;&gt;&lt;font face=&quot;YS Text, Helvetica Neue, Arial, Helvetica, sans-serif&quot; style=&quot;font-size: 15px;&quot;&gt;https://burger-frontend-3.prakticum-team.ru/feed/:i&lt;/font&gt;&lt;font color=&quot;#000000&quot;&gt;d&lt;/font&gt;&lt;span style=&quot;font-family: &amp;quot;YS Text&amp;quot;, &amp;quot;Helvetica Neue&amp;quot;, Arial, Helvetica, sans-serif; font-size: 14px; text-align: start;&quot;&gt;, где :id — идентификатор заказа&lt;/span&gt;" style="rounded=1;whiteSpace=wrap;html=1;fontSize=15;align=center;metaEdit=0;fixDash=0;snapToPoint=0;enumerate=0;comic=0;backgroundOutline=0;" vertex="1" parent="1">
          <mxGeometry x="140" y="891" width="330" height="60" as="geometry" />
        </mxCell>
        <mxCell id="QNIcIMOm-5N9Rosn84Q4-269" style="edgeStyle=orthogonalEdgeStyle;rounded=0;orthogonalLoop=1;jettySize=auto;html=1;exitX=0.75;exitY=1;exitDx=0;exitDy=0;entryX=0.5;entryY=0;entryDx=0;entryDy=0;fontFamily=Helvetica;fontSize=12;fontColor=default;curved=1;" edge="1" parent="1" source="QNIcIMOm-5N9Rosn84Q4-268" target="QNIcIMOm-5N9Rosn84Q4-49">
          <mxGeometry relative="1" as="geometry" />
        </mxCell>
        <mxCell id="QNIcIMOm-5N9Rosn84Q4-268" value="Переход по прямой ссылке&amp;nbsp;&lt;span class=&quot;wiki-italic&quot; style=&quot;border-color: var(--border-color); font-size: 15px; box-sizing: inherit; color: rgba(0, 0, 0, 0.85); font-family: &amp;quot;YS Text&amp;quot;, &amp;quot;Helvetica Neue&amp;quot;, Arial, Helvetica, sans-serif; text-align: start; background-color: rgb(255, 255, 255);&quot;&gt;— https://burger-frontend-3.prakticum-team.ru/account/profile&lt;/span&gt;" style="rounded=1;whiteSpace=wrap;html=1;fontStyle=0;fontSize=15;verticalAlign=middle;metaEdit=0;fixDash=0;snapToPoint=0;enumerate=0;comic=0;backgroundOutline=0;" vertex="1" parent="1">
          <mxGeometry x="2095" y="1030" width="310" height="60" as="geometry" />
        </mxCell>
        <mxCell id="QNIcIMOm-5N9Rosn84Q4-271" style="edgeStyle=orthogonalEdgeStyle;rounded=0;orthogonalLoop=1;jettySize=auto;html=1;entryX=1;entryY=0.5;entryDx=0;entryDy=0;fontFamily=Helvetica;fontSize=12;fontColor=default;curved=1;" edge="1" parent="1" source="QNIcIMOm-5N9Rosn84Q4-270" target="QNIcIMOm-5N9Rosn84Q4-54">
          <mxGeometry relative="1" as="geometry" />
        </mxCell>
        <mxCell id="QNIcIMOm-5N9Rosn84Q4-270" value="Переход по прямой ссылке&amp;nbsp;&lt;span class=&quot;wiki-italic&quot; style=&quot;border-color: var(--border-color); font-size: 15px; box-sizing: inherit; color: rgba(0, 0, 0, 0.85); font-family: &amp;quot;YS Text&amp;quot;, &amp;quot;Helvetica Neue&amp;quot;, Arial, Helvetica, sans-serif; text-align: start; background-color: rgb(255, 255, 255);&quot;&gt;— https://burger-frontend-3.prakticum-team.ru/account/order-history&lt;/span&gt;" style="rounded=1;whiteSpace=wrap;html=1;fontStyle=0;fontSize=15;verticalAlign=middle;metaEdit=0;fixDash=0;snapToPoint=0;enumerate=0;comic=0;backgroundOutline=0;" vertex="1" parent="1">
          <mxGeometry x="2840" y="1400" width="350" height="60" as="geometry" />
        </mxCell>
        <mxCell id="QNIcIMOm-5N9Rosn84Q4-272" style="edgeStyle=orthogonalEdgeStyle;rounded=0;orthogonalLoop=1;jettySize=auto;html=1;exitX=0.25;exitY=1;exitDx=0;exitDy=0;entryX=0.5;entryY=0;entryDx=0;entryDy=0;fontFamily=Helvetica;fontSize=12;fontColor=default;curved=1;" edge="1" parent="1" source="QNIcIMOm-5N9Rosn84Q4-54" target="QNIcIMOm-5N9Rosn84Q4-275">
          <mxGeometry relative="1" as="geometry">
            <mxPoint x="3120" y="1789" as="sourcePoint" />
          </mxGeometry>
        </mxCell>
        <mxCell id="QNIcIMOm-5N9Rosn84Q4-274" style="edgeStyle=orthogonalEdgeStyle;rounded=0;orthogonalLoop=1;jettySize=auto;html=1;exitX=0.5;exitY=1;exitDx=0;exitDy=0;entryX=0.25;entryY=0;entryDx=0;entryDy=0;fontFamily=Helvetica;fontSize=12;fontColor=default;curved=1;" edge="1" parent="1" source="QNIcIMOm-5N9Rosn84Q4-275" target="QNIcIMOm-5N9Rosn84Q4-277">
          <mxGeometry relative="1" as="geometry" />
        </mxCell>
        <mxCell id="QNIcIMOm-5N9Rosn84Q4-275" value="Нажатие на карточку заказа" style="text;html=1;strokeColor=none;fillColor=none;align=center;verticalAlign=middle;whiteSpace=wrap;rounded=0;fontSize=20;fontFamily=Helvetica;fontColor=default;metaEdit=0;fixDash=0;snapToPoint=0;enumerate=0;comic=0;backgroundOutline=0;" vertex="1" parent="1">
          <mxGeometry x="2370" y="1531" width="240" height="40" as="geometry" />
        </mxCell>
        <mxCell id="QNIcIMOm-5N9Rosn84Q4-276" style="edgeStyle=orthogonalEdgeStyle;rounded=0;orthogonalLoop=1;jettySize=auto;html=1;exitX=0.75;exitY=0;exitDx=0;exitDy=0;entryX=0.5;entryY=1;entryDx=0;entryDy=0;fontFamily=Helvetica;fontSize=12;fontColor=default;curved=1;" edge="1" parent="1" source="QNIcIMOm-5N9Rosn84Q4-277" target="QNIcIMOm-5N9Rosn84Q4-282">
          <mxGeometry relative="1" as="geometry" />
        </mxCell>
        <mxCell id="QNIcIMOm-5N9Rosn84Q4-277" value="&lt;font style=&quot;font-size: 20px;&quot;&gt;Окно &quot;Детали заказа&quot;&lt;/font&gt;" style="rounded=1;whiteSpace=wrap;html=1;metaEdit=0;fixDash=0;snapToPoint=0;enumerate=0;comic=0;backgroundOutline=0;" vertex="1" parent="1">
          <mxGeometry x="2470" y="1669" width="240" height="81" as="geometry" />
        </mxCell>
        <mxCell id="QNIcIMOm-5N9Rosn84Q4-278" style="edgeStyle=orthogonalEdgeStyle;rounded=0;orthogonalLoop=1;jettySize=auto;html=1;exitX=1;exitY=0.75;exitDx=0;exitDy=0;entryX=0.5;entryY=1;entryDx=0;entryDy=0;fontFamily=Helvetica;fontSize=12;fontColor=default;metaEdit=0;fixDash=0;snapToPoint=0;enumerate=0;comic=0;backgroundOutline=0;curved=1;" edge="1" parent="1" source="QNIcIMOm-5N9Rosn84Q4-277" target="QNIcIMOm-5N9Rosn84Q4-280">
          <mxGeometry relative="1" as="geometry">
            <mxPoint x="2550" y="1374" as="sourcePoint" />
          </mxGeometry>
        </mxCell>
        <mxCell id="QNIcIMOm-5N9Rosn84Q4-279" style="edgeStyle=orthogonalEdgeStyle;rounded=0;orthogonalLoop=1;jettySize=auto;html=1;entryX=0.75;entryY=1;entryDx=0;entryDy=0;fontFamily=Helvetica;fontSize=12;fontColor=default;curved=1;exitX=0.5;exitY=0;exitDx=0;exitDy=0;" edge="1" parent="1" source="QNIcIMOm-5N9Rosn84Q4-280" target="QNIcIMOm-5N9Rosn84Q4-54">
          <mxGeometry relative="1" as="geometry">
            <mxPoint x="3060" y="1769" as="targetPoint" />
          </mxGeometry>
        </mxCell>
        <mxCell id="QNIcIMOm-5N9Rosn84Q4-280" value="Крестик" style="text;html=1;strokeColor=none;fillColor=none;align=center;verticalAlign=middle;whiteSpace=wrap;rounded=0;fontSize=20;fontFamily=Helvetica;fontColor=default;metaEdit=0;fixDash=0;snapToPoint=0;enumerate=0;comic=0;backgroundOutline=0;" vertex="1" parent="1">
          <mxGeometry x="2770" y="1609" width="120" height="40" as="geometry" />
        </mxCell>
        <mxCell id="QNIcIMOm-5N9Rosn84Q4-281" style="edgeStyle=orthogonalEdgeStyle;rounded=0;orthogonalLoop=1;jettySize=auto;html=1;exitX=0.5;exitY=0;exitDx=0;exitDy=0;entryX=0.5;entryY=1;entryDx=0;entryDy=0;fontFamily=Helvetica;fontSize=12;fontColor=default;curved=1;" edge="1" parent="1" source="QNIcIMOm-5N9Rosn84Q4-282" target="QNIcIMOm-5N9Rosn84Q4-54">
          <mxGeometry relative="1" as="geometry">
            <mxPoint x="3060" y="1728" as="targetPoint" />
          </mxGeometry>
        </mxCell>
        <mxCell id="QNIcIMOm-5N9Rosn84Q4-282" value="Клик по свободному месту вне окна" style="text;html=1;strokeColor=none;fillColor=none;align=center;verticalAlign=middle;whiteSpace=wrap;rounded=0;fontSize=20;fontFamily=Helvetica;fontColor=default;metaEdit=0;fixDash=0;snapToPoint=0;enumerate=0;comic=0;backgroundOutline=0;" vertex="1" parent="1">
          <mxGeometry x="2560" y="1560" width="220" height="60" as="geometry" />
        </mxCell>
        <mxCell id="QNIcIMOm-5N9Rosn84Q4-283" style="edgeStyle=orthogonalEdgeStyle;rounded=0;orthogonalLoop=1;jettySize=auto;html=1;exitX=0.5;exitY=0;exitDx=0;exitDy=0;entryX=0.25;entryY=1;entryDx=0;entryDy=0;fontFamily=Helvetica;fontSize=12;fontColor=default;curved=1;" edge="1" parent="1" source="QNIcIMOm-5N9Rosn84Q4-284" target="QNIcIMOm-5N9Rosn84Q4-277">
          <mxGeometry relative="1" as="geometry" />
        </mxCell>
        <mxCell id="QNIcIMOm-5N9Rosn84Q4-284" value="Переход по прямой ссылке&amp;nbsp;&lt;i style=&quot;border-color: var(--border-color); box-sizing: inherit; font-family: &amp;quot;YS Text&amp;quot;, &amp;quot;Helvetica Neue&amp;quot;, Arial, Helvetica, sans-serif; font-size: 15px;&quot; class=&quot;wiki-italic&quot;&gt;—&lt;/i&gt;&amp;nbsp;&lt;span style=&quot;font-size: 15px;&quot;&gt;&amp;nbsp;&lt;/span&gt;&lt;br style=&quot;font-size: 15px;&quot;&gt;&lt;font face=&quot;YS Text, Helvetica Neue, Arial, Helvetica, sans-serif&quot; style=&quot;font-size: 15px;&quot;&gt;https://burger-frontend-3.prakticum-team.ru/account/order-history/:i&lt;/font&gt;&lt;font color=&quot;#000000&quot;&gt;d&lt;/font&gt;&lt;span style=&quot;font-family: &amp;quot;YS Text&amp;quot;, &amp;quot;Helvetica Neue&amp;quot;, Arial, Helvetica, sans-serif; font-size: 14px; text-align: start;&quot;&gt;, где :id — идентификатор заказа&lt;/span&gt;" style="rounded=1;whiteSpace=wrap;html=1;fontSize=15;align=center;metaEdit=0;fixDash=0;snapToPoint=0;enumerate=0;comic=0;backgroundOutline=0;" vertex="1" parent="1">
          <mxGeometry x="2305" y="1809" width="395" height="60" as="geometry" />
        </mxCell>
        <mxCell id="Jt5SpMfg6PSiID8f1sn_-1" style="edgeStyle=orthogonalEdgeStyle;rounded=0;orthogonalLoop=1;jettySize=auto;html=1;exitX=0.75;exitY=0;exitDx=0;exitDy=0;entryX=0.25;entryY=1;entryDx=0;entryDy=0;fontFamily=Helvetica;fontSize=12;fontColor=default;curved=1;" edge="1" parent="1" source="Jt5SpMfg6PSiID8f1sn_-2" target="QNIcIMOm-5N9Rosn84Q4-83">
          <mxGeometry relative="1" as="geometry">
            <mxPoint x="720" y="657" as="targetPoint" />
          </mxGeometry>
        </mxCell>
        <mxCell id="Jt5SpMfg6PSiID8f1sn_-2" value="Переход по прямой ссылке&amp;nbsp;&lt;i style=&quot;border-color: var(--border-color); box-sizing: inherit; font-family: &amp;quot;YS Text&amp;quot;, &amp;quot;Helvetica Neue&amp;quot;, Arial, Helvetica, sans-serif; font-size: 15px; background-color: rgb(255, 255, 255);&quot; class=&quot;wiki-italic&quot;&gt;—&lt;/i&gt;&amp;nbsp;&lt;span style=&quot;background-color: initial; font-size: 15px;&quot;&gt;&amp;nbsp;&lt;/span&gt;&lt;br style=&quot;font-size: 15px;&quot;&gt;&lt;font face=&quot;YS Text, Helvetica Neue, Arial, Helvetica, sans-serif&quot; style=&quot;font-size: 15px;&quot;&gt;https://burger-frontend-3.prakticum-team.ru/ingredient/:id&lt;/font&gt;, где :id — идентификатор ингредиента&lt;font face=&quot;YS Text, Helvetica Neue, Arial, Helvetica, sans-serif&quot; style=&quot;font-size: 15px;&quot;&gt;&lt;br&gt;&lt;/font&gt;" style="rounded=1;whiteSpace=wrap;html=1;fontSize=15;align=center;metaEdit=0;fixDash=0;snapToPoint=0;enumerate=0;comic=0;backgroundOutline=0;" vertex="1" parent="1">
          <mxGeometry x="360" y="631" width="340" height="80" as="geometry" />
        </mxCell>
      </root>
    </mxGraphModel>
  </diagram>
</mxfile>
